<mxfile host="Electron" modified="2023-09-19T19:14:50.662Z" agent="Mozilla/5.0 (Windows NT 10.0; Win64; x64) AppleWebKit/537.36 (KHTML, like Gecko) draw.io/21.7.5 Chrome/114.0.5735.289 Electron/25.8.1 Safari/537.36" etag="Ux3s8choxjDA3jik2OQL" version="21.7.5" type="device">
  <diagram name="Страница — 1" id="DnMvHS231F4r-LKrPqMb">
    <mxGraphModel dx="7351" dy="2394" grid="1" gridSize="10" guides="1" tooltips="1" connect="1" arrows="1" fold="1" page="1" pageScale="1" pageWidth="3300" pageHeight="4681" math="0" shadow="0">
      <root>
        <mxCell id="0" />
        <mxCell id="1" parent="0" />
        <mxCell id="g6j7Yp6Mr4PRTwzFvZzi-2" value="&lt;font style=&quot;font-size: 22px;&quot;&gt;&lt;b&gt;План ПО&amp;nbsp;&lt;/b&gt;&lt;/font&gt;" style="text;html=1;strokeColor=none;fillColor=none;align=center;verticalAlign=middle;whiteSpace=wrap;rounded=0;" parent="1" vertex="1">
          <mxGeometry x="630" y="40" width="160" height="30" as="geometry" />
        </mxCell>
        <mxCell id="g6j7Yp6Mr4PRTwzFvZzi-87" style="edgeStyle=orthogonalEdgeStyle;rounded=0;orthogonalLoop=1;jettySize=auto;html=1;" parent="1" source="g6j7Yp6Mr4PRTwzFvZzi-10" target="g6j7Yp6Mr4PRTwzFvZzi-12" edge="1">
          <mxGeometry relative="1" as="geometry" />
        </mxCell>
        <mxCell id="g6j7Yp6Mr4PRTwzFvZzi-88" style="edgeStyle=orthogonalEdgeStyle;rounded=0;orthogonalLoop=1;jettySize=auto;html=1;" parent="1" source="g6j7Yp6Mr4PRTwzFvZzi-10" target="g6j7Yp6Mr4PRTwzFvZzi-18" edge="1">
          <mxGeometry relative="1" as="geometry" />
        </mxCell>
        <mxCell id="g6j7Yp6Mr4PRTwzFvZzi-10" value="Меню администрации" style="rounded=1;whiteSpace=wrap;html=1;fillColor=#f8cecc;strokeColor=#b85450;" parent="1" vertex="1">
          <mxGeometry x="1640" y="850" width="120" height="60" as="geometry" />
        </mxCell>
        <mxCell id="g6j7Yp6Mr4PRTwzFvZzi-48" style="edgeStyle=orthogonalEdgeStyle;rounded=0;orthogonalLoop=1;jettySize=auto;html=1;entryX=0.5;entryY=0;entryDx=0;entryDy=0;fontStyle=0" parent="1" source="g6j7Yp6Mr4PRTwzFvZzi-11" target="g6j7Yp6Mr4PRTwzFvZzi-22" edge="1">
          <mxGeometry relative="1" as="geometry">
            <Array as="points">
              <mxPoint x="350" y="1040" />
            </Array>
          </mxGeometry>
        </mxCell>
        <mxCell id="g6j7Yp6Mr4PRTwzFvZzi-11" value="Меню продавца" style="rounded=1;whiteSpace=wrap;html=1;fillColor=#f8cecc;strokeColor=#b85450;" parent="1" vertex="1">
          <mxGeometry x="430" y="1000" width="160" height="70" as="geometry" />
        </mxCell>
        <mxCell id="g6j7Yp6Mr4PRTwzFvZzi-79" style="edgeStyle=orthogonalEdgeStyle;rounded=0;orthogonalLoop=1;jettySize=auto;html=1;entryX=0.5;entryY=0;entryDx=0;entryDy=0;" parent="1" source="g6j7Yp6Mr4PRTwzFvZzi-12" target="g6j7Yp6Mr4PRTwzFvZzi-51" edge="1">
          <mxGeometry relative="1" as="geometry" />
        </mxCell>
        <mxCell id="g6j7Yp6Mr4PRTwzFvZzi-80" style="edgeStyle=orthogonalEdgeStyle;rounded=0;orthogonalLoop=1;jettySize=auto;html=1;" parent="1" source="g6j7Yp6Mr4PRTwzFvZzi-12" target="g6j7Yp6Mr4PRTwzFvZzi-52" edge="1">
          <mxGeometry relative="1" as="geometry" />
        </mxCell>
        <mxCell id="g6j7Yp6Mr4PRTwzFvZzi-12" value="Статистика по датам и периодам (выручки, чистая прибль, кто работал" style="rounded=1;whiteSpace=wrap;html=1;fillColor=#fff2cc;strokeColor=#d6b656;" parent="1" vertex="1">
          <mxGeometry x="1250" y="1000" width="140" height="70" as="geometry" />
        </mxCell>
        <mxCell id="g6j7Yp6Mr4PRTwzFvZzi-13" value="за месяца" style="rounded=1;whiteSpace=wrap;html=1;" parent="1" vertex="1">
          <mxGeometry x="1120" y="1180" width="120" height="60" as="geometry" />
        </mxCell>
        <mxCell id="g6j7Yp6Mr4PRTwzFvZzi-14" value="За года&lt;br&gt;" style="rounded=1;whiteSpace=wrap;html=1;" parent="1" vertex="1">
          <mxGeometry x="1120" y="1250" width="120" height="60" as="geometry" />
        </mxCell>
        <mxCell id="g6j7Yp6Mr4PRTwzFvZzi-15" value="за дни" style="rounded=1;whiteSpace=wrap;html=1;" parent="1" vertex="1">
          <mxGeometry x="940" y="1250" width="120" height="60" as="geometry" />
        </mxCell>
        <mxCell id="g6j7Yp6Mr4PRTwzFvZzi-16" value="за недели" style="rounded=1;whiteSpace=wrap;html=1;" parent="1" vertex="1">
          <mxGeometry x="940" y="1180" width="120" height="60" as="geometry" />
        </mxCell>
        <mxCell id="g6j7Yp6Mr4PRTwzFvZzi-17" value="Общая статистика за все время (учет товара оборота, расходов, зарплат и т.д&lt;br&gt;" style="rounded=1;whiteSpace=wrap;html=1;fillColor=#fff2cc;strokeColor=#d6b656;" parent="1" vertex="1">
          <mxGeometry x="2380" y="605" width="120" height="80" as="geometry" />
        </mxCell>
        <mxCell id="g6j7Yp6Mr4PRTwzFvZzi-84" style="edgeStyle=orthogonalEdgeStyle;rounded=0;orthogonalLoop=1;jettySize=auto;html=1;entryX=1;entryY=0.5;entryDx=0;entryDy=0;" parent="1" source="g6j7Yp6Mr4PRTwzFvZzi-18" target="g6j7Yp6Mr4PRTwzFvZzi-81" edge="1">
          <mxGeometry relative="1" as="geometry" />
        </mxCell>
        <mxCell id="g6j7Yp6Mr4PRTwzFvZzi-85" style="edgeStyle=orthogonalEdgeStyle;rounded=0;orthogonalLoop=1;jettySize=auto;html=1;entryX=1;entryY=0.5;entryDx=0;entryDy=0;" parent="1" source="g6j7Yp6Mr4PRTwzFvZzi-18" target="g6j7Yp6Mr4PRTwzFvZzi-83" edge="1">
          <mxGeometry relative="1" as="geometry" />
        </mxCell>
        <mxCell id="g6j7Yp6Mr4PRTwzFvZzi-90" style="edgeStyle=orthogonalEdgeStyle;rounded=0;orthogonalLoop=1;jettySize=auto;html=1;entryX=0;entryY=0.5;entryDx=0;entryDy=0;" parent="1" source="g6j7Yp6Mr4PRTwzFvZzi-18" target="g6j7Yp6Mr4PRTwzFvZzi-89" edge="1">
          <mxGeometry relative="1" as="geometry" />
        </mxCell>
        <mxCell id="g6j7Yp6Mr4PRTwzFvZzi-91" style="edgeStyle=orthogonalEdgeStyle;rounded=0;orthogonalLoop=1;jettySize=auto;html=1;entryX=0;entryY=0.5;entryDx=0;entryDy=0;" parent="1" source="g6j7Yp6Mr4PRTwzFvZzi-18" target="g6j7Yp6Mr4PRTwzFvZzi-82" edge="1">
          <mxGeometry relative="1" as="geometry" />
        </mxCell>
        <mxCell id="g6j7Yp6Mr4PRTwzFvZzi-18" value="добавление расходов в бизнес" style="rounded=1;whiteSpace=wrap;html=1;fillColor=#fff2cc;strokeColor=#d6b656;" parent="1" vertex="1">
          <mxGeometry x="2020" y="1000" width="120" height="80" as="geometry" />
        </mxCell>
        <mxCell id="g6j7Yp6Mr4PRTwzFvZzi-93" style="edgeStyle=orthogonalEdgeStyle;rounded=0;orthogonalLoop=1;jettySize=auto;html=1;entryX=1;entryY=0.5;entryDx=0;entryDy=0;" parent="1" source="g6j7Yp6Mr4PRTwzFvZzi-19" target="g6j7Yp6Mr4PRTwzFvZzi-92" edge="1">
          <mxGeometry relative="1" as="geometry" />
        </mxCell>
        <mxCell id="g6j7Yp6Mr4PRTwzFvZzi-19" value="добавление новых товаров (привоз)" style="rounded=1;whiteSpace=wrap;html=1;fillColor=#fff2cc;strokeColor=#d6b656;" parent="1" vertex="1">
          <mxGeometry x="2380" y="1000" width="120" height="80" as="geometry" />
        </mxCell>
        <mxCell id="g6j7Yp6Mr4PRTwzFvZzi-20" value="списывание брачной (подарок, брак и т.д) продукции" style="rounded=1;whiteSpace=wrap;html=1;fillColor=#fff2cc;strokeColor=#d6b656;" parent="1" vertex="1">
          <mxGeometry x="2240" y="490" width="120" height="80" as="geometry" />
        </mxCell>
        <mxCell id="g6j7Yp6Mr4PRTwzFvZzi-21" value="общее кол-во товаров и денег вложенных в них" style="rounded=1;whiteSpace=wrap;html=1;fillColor=#fff2cc;strokeColor=#d6b656;" parent="1" vertex="1">
          <mxGeometry x="2240" y="370" width="120" height="80" as="geometry" />
        </mxCell>
        <mxCell id="g6j7Yp6Mr4PRTwzFvZzi-33" style="edgeStyle=orthogonalEdgeStyle;rounded=0;orthogonalLoop=1;jettySize=auto;html=1;entryX=1;entryY=0.5;entryDx=0;entryDy=0;exitX=0.5;exitY=1;exitDx=0;exitDy=0;fontStyle=0" parent="1" source="g6j7Yp6Mr4PRTwzFvZzi-22" target="g6j7Yp6Mr4PRTwzFvZzi-23" edge="1">
          <mxGeometry relative="1" as="geometry">
            <Array as="points">
              <mxPoint x="350" y="1210" />
            </Array>
          </mxGeometry>
        </mxCell>
        <mxCell id="g6j7Yp6Mr4PRTwzFvZzi-36" style="edgeStyle=orthogonalEdgeStyle;rounded=0;orthogonalLoop=1;jettySize=auto;html=1;entryX=1;entryY=0.5;entryDx=0;entryDy=0;fontStyle=0" parent="1" source="g6j7Yp6Mr4PRTwzFvZzi-22" target="g6j7Yp6Mr4PRTwzFvZzi-24" edge="1">
          <mxGeometry relative="1" as="geometry" />
        </mxCell>
        <mxCell id="g6j7Yp6Mr4PRTwzFvZzi-37" style="edgeStyle=orthogonalEdgeStyle;rounded=0;orthogonalLoop=1;jettySize=auto;html=1;entryX=1;entryY=0.5;entryDx=0;entryDy=0;fontStyle=0" parent="1" source="g6j7Yp6Mr4PRTwzFvZzi-22" target="g6j7Yp6Mr4PRTwzFvZzi-25" edge="1">
          <mxGeometry relative="1" as="geometry" />
        </mxCell>
        <mxCell id="g6j7Yp6Mr4PRTwzFvZzi-38" style="edgeStyle=orthogonalEdgeStyle;rounded=0;orthogonalLoop=1;jettySize=auto;html=1;entryX=0;entryY=0.5;entryDx=0;entryDy=0;fontStyle=0" parent="1" source="g6j7Yp6Mr4PRTwzFvZzi-22" target="g6j7Yp6Mr4PRTwzFvZzi-27" edge="1">
          <mxGeometry relative="1" as="geometry" />
        </mxCell>
        <mxCell id="g6j7Yp6Mr4PRTwzFvZzi-39" style="edgeStyle=orthogonalEdgeStyle;rounded=0;orthogonalLoop=1;jettySize=auto;html=1;entryX=0;entryY=0.5;entryDx=0;entryDy=0;fontStyle=0" parent="1" source="g6j7Yp6Mr4PRTwzFvZzi-22" target="g6j7Yp6Mr4PRTwzFvZzi-26" edge="1">
          <mxGeometry relative="1" as="geometry" />
        </mxCell>
        <mxCell id="g6j7Yp6Mr4PRTwzFvZzi-40" style="edgeStyle=orthogonalEdgeStyle;rounded=0;orthogonalLoop=1;jettySize=auto;html=1;entryX=0;entryY=0.5;entryDx=0;entryDy=0;fontStyle=0" parent="1" source="g6j7Yp6Mr4PRTwzFvZzi-22" target="g6j7Yp6Mr4PRTwzFvZzi-28" edge="1">
          <mxGeometry relative="1" as="geometry" />
        </mxCell>
        <mxCell id="g6j7Yp6Mr4PRTwzFvZzi-47" style="edgeStyle=orthogonalEdgeStyle;rounded=0;orthogonalLoop=1;jettySize=auto;html=1;entryX=1;entryY=0.5;entryDx=0;entryDy=0;fontStyle=0" parent="1" source="g6j7Yp6Mr4PRTwzFvZzi-22" target="g6j7Yp6Mr4PRTwzFvZzi-44" edge="1">
          <mxGeometry relative="1" as="geometry" />
        </mxCell>
        <mxCell id="g6j7Yp6Mr4PRTwzFvZzi-97" style="edgeStyle=orthogonalEdgeStyle;rounded=0;orthogonalLoop=1;jettySize=auto;html=1;entryX=0;entryY=0.5;entryDx=0;entryDy=0;fontStyle=0" parent="1" source="g6j7Yp6Mr4PRTwzFvZzi-22" target="g6j7Yp6Mr4PRTwzFvZzi-96" edge="1">
          <mxGeometry relative="1" as="geometry" />
        </mxCell>
        <mxCell id="g6j7Yp6Mr4PRTwzFvZzi-110" style="edgeStyle=orthogonalEdgeStyle;rounded=0;orthogonalLoop=1;jettySize=auto;html=1;entryX=1;entryY=0.5;entryDx=0;entryDy=0;fontStyle=0" parent="1" source="g6j7Yp6Mr4PRTwzFvZzi-22" target="g6j7Yp6Mr4PRTwzFvZzi-109" edge="1">
          <mxGeometry relative="1" as="geometry" />
        </mxCell>
        <mxCell id="g6j7Yp6Mr4PRTwzFvZzi-22" value="Общая выручка&amp;nbsp;" style="rounded=1;whiteSpace=wrap;html=1;fillColor=#fff2cc;strokeColor=#d6b656;fontStyle=0" parent="1" vertex="1">
          <mxGeometry x="280" y="1090" width="140" height="70" as="geometry" />
        </mxCell>
        <mxCell id="g6j7Yp6Mr4PRTwzFvZzi-23" value="карты" style="rounded=1;whiteSpace=wrap;html=1;fontStyle=0" parent="1" vertex="1">
          <mxGeometry x="200" y="1180" width="120" height="60" as="geometry" />
        </mxCell>
        <mxCell id="g6j7Yp6Mr4PRTwzFvZzi-24" value="интернет продажи (авито, вк и т.д.)" style="rounded=1;whiteSpace=wrap;html=1;fontStyle=0" parent="1" vertex="1">
          <mxGeometry x="200" y="1250" width="120" height="60" as="geometry" />
        </mxCell>
        <mxCell id="g6j7Yp6Mr4PRTwzFvZzi-25" value="наличные" style="rounded=1;whiteSpace=wrap;html=1;fontStyle=0" parent="1" vertex="1">
          <mxGeometry x="200" y="1320" width="120" height="60" as="geometry" />
        </mxCell>
        <mxCell id="g6j7Yp6Mr4PRTwzFvZzi-26" value="переводы" style="rounded=1;whiteSpace=wrap;html=1;fontStyle=0" parent="1" vertex="1">
          <mxGeometry x="380" y="1250" width="120" height="60" as="geometry" />
        </mxCell>
        <mxCell id="g6j7Yp6Mr4PRTwzFvZzi-27" value="уточнение по времени" style="rounded=1;whiteSpace=wrap;html=1;fontStyle=0" parent="1" vertex="1">
          <mxGeometry x="380" y="1180" width="120" height="60" as="geometry" />
        </mxCell>
        <mxCell id="g6j7Yp6Mr4PRTwzFvZzi-28" value="взятие выручки до окончания смены" style="rounded=1;whiteSpace=wrap;html=1;fontStyle=0" parent="1" vertex="1">
          <mxGeometry x="380" y="1320" width="120" height="60" as="geometry" />
        </mxCell>
        <mxCell id="g6j7Yp6Mr4PRTwzFvZzi-41" style="edgeStyle=orthogonalEdgeStyle;rounded=0;orthogonalLoop=1;jettySize=auto;html=1;entryX=1;entryY=0.5;entryDx=0;entryDy=0;fontStyle=0" parent="1" source="g6j7Yp6Mr4PRTwzFvZzi-29" target="g6j7Yp6Mr4PRTwzFvZzi-30" edge="1">
          <mxGeometry relative="1" as="geometry" />
        </mxCell>
        <mxCell id="g6j7Yp6Mr4PRTwzFvZzi-42" style="edgeStyle=orthogonalEdgeStyle;rounded=0;orthogonalLoop=1;jettySize=auto;html=1;entryX=1;entryY=0.5;entryDx=0;entryDy=0;fontStyle=0" parent="1" source="g6j7Yp6Mr4PRTwzFvZzi-29" target="g6j7Yp6Mr4PRTwzFvZzi-31" edge="1">
          <mxGeometry relative="1" as="geometry" />
        </mxCell>
        <mxCell id="g6j7Yp6Mr4PRTwzFvZzi-43" style="edgeStyle=orthogonalEdgeStyle;rounded=0;orthogonalLoop=1;jettySize=auto;html=1;entryX=0;entryY=0.5;entryDx=0;entryDy=0;fontStyle=0" parent="1" source="g6j7Yp6Mr4PRTwzFvZzi-29" target="g6j7Yp6Mr4PRTwzFvZzi-32" edge="1">
          <mxGeometry relative="1" as="geometry" />
        </mxCell>
        <mxCell id="g6j7Yp6Mr4PRTwzFvZzi-46" style="edgeStyle=orthogonalEdgeStyle;rounded=0;orthogonalLoop=1;jettySize=auto;html=1;entryX=0;entryY=0.5;entryDx=0;entryDy=0;fontStyle=0" parent="1" source="g6j7Yp6Mr4PRTwzFvZzi-29" target="g6j7Yp6Mr4PRTwzFvZzi-45" edge="1">
          <mxGeometry relative="1" as="geometry" />
        </mxCell>
        <mxCell id="g6j7Yp6Mr4PRTwzFvZzi-108" style="edgeStyle=orthogonalEdgeStyle;rounded=0;orthogonalLoop=1;jettySize=auto;html=1;entryX=1;entryY=0.5;entryDx=0;entryDy=0;fontStyle=0" parent="1" source="g6j7Yp6Mr4PRTwzFvZzi-29" target="g6j7Yp6Mr4PRTwzFvZzi-107" edge="1">
          <mxGeometry relative="1" as="geometry" />
        </mxCell>
        <mxCell id="g6j7Yp6Mr4PRTwzFvZzi-29" value="возврат" style="rounded=1;whiteSpace=wrap;html=1;fillColor=#fff2cc;strokeColor=#d6b656;fontStyle=0" parent="1" vertex="1">
          <mxGeometry x="1930" y="1530" width="140" height="70" as="geometry" />
        </mxCell>
        <mxCell id="g6j7Yp6Mr4PRTwzFvZzi-30" value="Способ возврата денежных средств (карта, нал или перевод)" style="rounded=1;whiteSpace=wrap;html=1;fontStyle=0" parent="1" vertex="1">
          <mxGeometry x="1850" y="1620" width="120" height="60" as="geometry" />
        </mxCell>
        <mxCell id="g6j7Yp6Mr4PRTwzFvZzi-31" value="В какой день была совершена покупка и возврат" style="rounded=1;whiteSpace=wrap;html=1;fontStyle=0" parent="1" vertex="1">
          <mxGeometry x="1850" y="1690" width="120" height="60" as="geometry" />
        </mxCell>
        <mxCell id="g6j7Yp6Mr4PRTwzFvZzi-32" value="уточнение по времени" style="rounded=1;whiteSpace=wrap;html=1;fontStyle=0" parent="1" vertex="1">
          <mxGeometry x="2030" y="1620" width="120" height="60" as="geometry" />
        </mxCell>
        <mxCell id="g6j7Yp6Mr4PRTwzFvZzi-44" value="кем совершена покупка (номер или ФИО)" style="rounded=1;whiteSpace=wrap;html=1;fontStyle=0" parent="1" vertex="1">
          <mxGeometry x="200" y="1390" width="120" height="60" as="geometry" />
        </mxCell>
        <mxCell id="g6j7Yp6Mr4PRTwzFvZzi-45" value="кем совершен возврат (номер или ФИО)" style="rounded=1;whiteSpace=wrap;html=1;fontStyle=0" parent="1" vertex="1">
          <mxGeometry x="2030" y="1690" width="120" height="60" as="geometry" />
        </mxCell>
        <mxCell id="g6j7Yp6Mr4PRTwzFvZzi-53" style="edgeStyle=orthogonalEdgeStyle;rounded=0;orthogonalLoop=1;jettySize=auto;html=1;entryX=1;entryY=0.5;entryDx=0;entryDy=0;" parent="1" source="g6j7Yp6Mr4PRTwzFvZzi-51" target="g6j7Yp6Mr4PRTwzFvZzi-16" edge="1">
          <mxGeometry relative="1" as="geometry" />
        </mxCell>
        <mxCell id="g6j7Yp6Mr4PRTwzFvZzi-54" style="edgeStyle=orthogonalEdgeStyle;rounded=0;orthogonalLoop=1;jettySize=auto;html=1;entryX=0;entryY=0.5;entryDx=0;entryDy=0;" parent="1" source="g6j7Yp6Mr4PRTwzFvZzi-51" target="g6j7Yp6Mr4PRTwzFvZzi-13" edge="1">
          <mxGeometry relative="1" as="geometry" />
        </mxCell>
        <mxCell id="g6j7Yp6Mr4PRTwzFvZzi-55" style="edgeStyle=orthogonalEdgeStyle;rounded=0;orthogonalLoop=1;jettySize=auto;html=1;entryX=1;entryY=0.5;entryDx=0;entryDy=0;" parent="1" source="g6j7Yp6Mr4PRTwzFvZzi-51" target="g6j7Yp6Mr4PRTwzFvZzi-15" edge="1">
          <mxGeometry relative="1" as="geometry" />
        </mxCell>
        <mxCell id="g6j7Yp6Mr4PRTwzFvZzi-56" style="edgeStyle=orthogonalEdgeStyle;rounded=0;orthogonalLoop=1;jettySize=auto;html=1;entryX=0;entryY=0.5;entryDx=0;entryDy=0;" parent="1" source="g6j7Yp6Mr4PRTwzFvZzi-51" target="g6j7Yp6Mr4PRTwzFvZzi-14" edge="1">
          <mxGeometry relative="1" as="geometry" />
        </mxCell>
        <mxCell id="g6j7Yp6Mr4PRTwzFvZzi-51" value="период" style="rounded=1;whiteSpace=wrap;html=1;" parent="1" vertex="1">
          <mxGeometry x="1030" y="1095" width="120" height="60" as="geometry" />
        </mxCell>
        <mxCell id="g6j7Yp6Mr4PRTwzFvZzi-77" style="edgeStyle=orthogonalEdgeStyle;rounded=0;orthogonalLoop=1;jettySize=auto;html=1;entryX=0.5;entryY=0;entryDx=0;entryDy=0;" parent="1" source="g6j7Yp6Mr4PRTwzFvZzi-52" target="g6j7Yp6Mr4PRTwzFvZzi-57" edge="1">
          <mxGeometry relative="1" as="geometry" />
        </mxCell>
        <mxCell id="g6j7Yp6Mr4PRTwzFvZzi-78" style="edgeStyle=orthogonalEdgeStyle;rounded=0;orthogonalLoop=1;jettySize=auto;html=1;" parent="1" source="g6j7Yp6Mr4PRTwzFvZzi-52" target="g6j7Yp6Mr4PRTwzFvZzi-62" edge="1">
          <mxGeometry relative="1" as="geometry" />
        </mxCell>
        <mxCell id="g6j7Yp6Mr4PRTwzFvZzi-52" value="информация" style="rounded=1;whiteSpace=wrap;html=1;" parent="1" vertex="1">
          <mxGeometry x="1510" y="1095" width="120" height="60" as="geometry" />
        </mxCell>
        <mxCell id="g6j7Yp6Mr4PRTwzFvZzi-69" style="edgeStyle=orthogonalEdgeStyle;rounded=0;orthogonalLoop=1;jettySize=auto;html=1;entryX=1;entryY=0.5;entryDx=0;entryDy=0;" parent="1" source="g6j7Yp6Mr4PRTwzFvZzi-57" target="g6j7Yp6Mr4PRTwzFvZzi-58" edge="1">
          <mxGeometry relative="1" as="geometry" />
        </mxCell>
        <mxCell id="g6j7Yp6Mr4PRTwzFvZzi-70" style="edgeStyle=orthogonalEdgeStyle;rounded=0;orthogonalLoop=1;jettySize=auto;html=1;entryX=1;entryY=0.5;entryDx=0;entryDy=0;" parent="1" source="g6j7Yp6Mr4PRTwzFvZzi-57" target="g6j7Yp6Mr4PRTwzFvZzi-59" edge="1">
          <mxGeometry relative="1" as="geometry" />
        </mxCell>
        <mxCell id="g6j7Yp6Mr4PRTwzFvZzi-71" style="edgeStyle=orthogonalEdgeStyle;rounded=0;orthogonalLoop=1;jettySize=auto;html=1;entryX=0;entryY=0.5;entryDx=0;entryDy=0;" parent="1" source="g6j7Yp6Mr4PRTwzFvZzi-57" target="g6j7Yp6Mr4PRTwzFvZzi-60" edge="1">
          <mxGeometry relative="1" as="geometry" />
        </mxCell>
        <mxCell id="g6j7Yp6Mr4PRTwzFvZzi-72" style="edgeStyle=orthogonalEdgeStyle;rounded=0;orthogonalLoop=1;jettySize=auto;html=1;entryX=0;entryY=0.5;entryDx=0;entryDy=0;" parent="1" source="g6j7Yp6Mr4PRTwzFvZzi-57" target="g6j7Yp6Mr4PRTwzFvZzi-68" edge="1">
          <mxGeometry relative="1" as="geometry" />
        </mxCell>
        <mxCell id="g6j7Yp6Mr4PRTwzFvZzi-57" value="уточнение по дате&amp;nbsp;" style="rounded=1;whiteSpace=wrap;html=1;" parent="1" vertex="1">
          <mxGeometry x="1340" y="1185" width="120" height="60" as="geometry" />
        </mxCell>
        <mxCell id="g6j7Yp6Mr4PRTwzFvZzi-58" value="кто работал" style="rounded=1;whiteSpace=wrap;html=1;" parent="1" vertex="1">
          <mxGeometry x="1250" y="1265" width="120" height="60" as="geometry" />
        </mxCell>
        <mxCell id="g6j7Yp6Mr4PRTwzFvZzi-59" value="выручка (информация дублируется с общей выручки)" style="rounded=1;whiteSpace=wrap;html=1;" parent="1" vertex="1">
          <mxGeometry x="1250" y="1335" width="120" height="60" as="geometry" />
        </mxCell>
        <mxCell id="g6j7Yp6Mr4PRTwzFvZzi-60" value="возвраты (информация дублируется с таблички возвраты" style="rounded=1;whiteSpace=wrap;html=1;" parent="1" vertex="1">
          <mxGeometry x="1430" y="1265" width="120" height="60" as="geometry" />
        </mxCell>
        <mxCell id="g6j7Yp6Mr4PRTwzFvZzi-73" style="edgeStyle=orthogonalEdgeStyle;rounded=0;orthogonalLoop=1;jettySize=auto;html=1;entryX=1;entryY=0.5;entryDx=0;entryDy=0;" parent="1" source="g6j7Yp6Mr4PRTwzFvZzi-62" target="g6j7Yp6Mr4PRTwzFvZzi-63" edge="1">
          <mxGeometry relative="1" as="geometry" />
        </mxCell>
        <mxCell id="g6j7Yp6Mr4PRTwzFvZzi-74" style="edgeStyle=orthogonalEdgeStyle;rounded=0;orthogonalLoop=1;jettySize=auto;html=1;entryX=0;entryY=0.5;entryDx=0;entryDy=0;" parent="1" source="g6j7Yp6Mr4PRTwzFvZzi-62" target="g6j7Yp6Mr4PRTwzFvZzi-66" edge="1">
          <mxGeometry relative="1" as="geometry" />
        </mxCell>
        <mxCell id="g6j7Yp6Mr4PRTwzFvZzi-75" style="edgeStyle=orthogonalEdgeStyle;rounded=0;orthogonalLoop=1;jettySize=auto;html=1;entryX=1;entryY=0.5;entryDx=0;entryDy=0;" parent="1" source="g6j7Yp6Mr4PRTwzFvZzi-62" target="g6j7Yp6Mr4PRTwzFvZzi-64" edge="1">
          <mxGeometry relative="1" as="geometry" />
        </mxCell>
        <mxCell id="g6j7Yp6Mr4PRTwzFvZzi-76" style="edgeStyle=orthogonalEdgeStyle;rounded=0;orthogonalLoop=1;jettySize=auto;html=1;entryX=0;entryY=0.5;entryDx=0;entryDy=0;" parent="1" source="g6j7Yp6Mr4PRTwzFvZzi-62" target="g6j7Yp6Mr4PRTwzFvZzi-67" edge="1">
          <mxGeometry relative="1" as="geometry" />
        </mxCell>
        <mxCell id="g6j7Yp6Mr4PRTwzFvZzi-101" style="edgeStyle=orthogonalEdgeStyle;rounded=0;orthogonalLoop=1;jettySize=auto;html=1;entryX=1;entryY=0.5;entryDx=0;entryDy=0;" parent="1" source="g6j7Yp6Mr4PRTwzFvZzi-62" target="g6j7Yp6Mr4PRTwzFvZzi-100" edge="1">
          <mxGeometry relative="1" as="geometry" />
        </mxCell>
        <mxCell id="g6j7Yp6Mr4PRTwzFvZzi-62" value="уточнение по периоду&amp;nbsp;" style="rounded=1;whiteSpace=wrap;html=1;" parent="1" vertex="1">
          <mxGeometry x="1680" y="1180" width="120" height="60" as="geometry" />
        </mxCell>
        <mxCell id="g6j7Yp6Mr4PRTwzFvZzi-63" value="кто работал" style="rounded=1;whiteSpace=wrap;html=1;" parent="1" vertex="1">
          <mxGeometry x="1590" y="1265" width="120" height="60" as="geometry" />
        </mxCell>
        <mxCell id="g6j7Yp6Mr4PRTwzFvZzi-64" value="выручка (карты, нал, интернет продажи)" style="rounded=1;whiteSpace=wrap;html=1;" parent="1" vertex="1">
          <mxGeometry x="1590" y="1335" width="120" height="60" as="geometry" />
        </mxCell>
        <mxCell id="g6j7Yp6Mr4PRTwzFvZzi-66" value="возвраты (только суммы)" style="rounded=1;whiteSpace=wrap;html=1;" parent="1" vertex="1">
          <mxGeometry x="1770" y="1265" width="120" height="60" as="geometry" />
        </mxCell>
        <mxCell id="g6j7Yp6Mr4PRTwzFvZzi-67" value="чистая прибыль&amp;nbsp; (весь период (с учетом расходов)&amp;nbsp;" style="rounded=1;whiteSpace=wrap;html=1;" parent="1" vertex="1">
          <mxGeometry x="1770" y="1335" width="120" height="60" as="geometry" />
        </mxCell>
        <mxCell id="g6j7Yp6Mr4PRTwzFvZzi-68" value="чистая прибыль&amp;nbsp; (весь период (без учета расходов)&amp;nbsp;" style="rounded=1;whiteSpace=wrap;html=1;" parent="1" vertex="1">
          <mxGeometry x="1430" y="1335" width="120" height="60" as="geometry" />
        </mxCell>
        <mxCell id="g6j7Yp6Mr4PRTwzFvZzi-81" value="уточнение по дате&amp;nbsp;" style="rounded=1;whiteSpace=wrap;html=1;" parent="1" vertex="1">
          <mxGeometry x="1930" y="1105" width="120" height="60" as="geometry" />
        </mxCell>
        <mxCell id="g6j7Yp6Mr4PRTwzFvZzi-82" value="стоимость" style="rounded=1;whiteSpace=wrap;html=1;" parent="1" vertex="1">
          <mxGeometry x="2110" y="1180" width="120" height="60" as="geometry" />
        </mxCell>
        <mxCell id="g6j7Yp6Mr4PRTwzFvZzi-83" value="Наименнование расхода" style="rounded=1;whiteSpace=wrap;html=1;" parent="1" vertex="1">
          <mxGeometry x="1930" y="1180" width="120" height="60" as="geometry" />
        </mxCell>
        <mxCell id="g6j7Yp6Mr4PRTwzFvZzi-89" value="Наименнование расхода" style="rounded=1;whiteSpace=wrap;html=1;" parent="1" vertex="1">
          <mxGeometry x="2110" y="1105" width="120" height="60" as="geometry" />
        </mxCell>
        <mxCell id="g6j7Yp6Mr4PRTwzFvZzi-92" value="уточнение по дате&amp;nbsp;" style="rounded=1;whiteSpace=wrap;html=1;" parent="1" vertex="1">
          <mxGeometry x="2290" y="1105" width="120" height="60" as="geometry" />
        </mxCell>
        <mxCell id="g6j7Yp6Mr4PRTwzFvZzi-94" value="кол-во" style="rounded=1;whiteSpace=wrap;html=1;" parent="1" vertex="1">
          <mxGeometry x="2290" y="1185" width="120" height="60" as="geometry" />
        </mxCell>
        <mxCell id="g6j7Yp6Mr4PRTwzFvZzi-95" value="цена продажи и покупки" style="rounded=1;whiteSpace=wrap;html=1;" parent="1" vertex="1">
          <mxGeometry x="2470" y="1100" width="120" height="60" as="geometry" />
        </mxCell>
        <mxCell id="g6j7Yp6Mr4PRTwzFvZzi-96" value="скидки" style="rounded=1;whiteSpace=wrap;html=1;fontStyle=0" parent="1" vertex="1">
          <mxGeometry x="380" y="1390" width="120" height="60" as="geometry" />
        </mxCell>
        <mxCell id="g6j7Yp6Mr4PRTwzFvZzi-100" value="скидки" style="rounded=1;whiteSpace=wrap;html=1;" parent="1" vertex="1">
          <mxGeometry x="1590" y="1410" width="120" height="60" as="geometry" />
        </mxCell>
        <mxCell id="g6j7Yp6Mr4PRTwzFvZzi-102" value="Название" style="rounded=1;whiteSpace=wrap;html=1;" parent="1" vertex="1">
          <mxGeometry x="2470" y="1180" width="120" height="60" as="geometry" />
        </mxCell>
        <mxCell id="g6j7Yp6Mr4PRTwzFvZzi-103" value="артикул (номер штрих-кода или QR кода)" style="rounded=1;whiteSpace=wrap;html=1;" parent="1" vertex="1">
          <mxGeometry x="2290" y="1260" width="120" height="60" as="geometry" />
        </mxCell>
        <mxCell id="g6j7Yp6Mr4PRTwzFvZzi-105" value="ЧТО БЫЛО КУПЛЕННО артикул (номер штрих-кода или QR кода)" style="rounded=1;whiteSpace=wrap;html=1;fontStyle=0" parent="1" vertex="1">
          <mxGeometry x="200" y="1560" width="120" height="60" as="geometry" />
        </mxCell>
        <mxCell id="g6j7Yp6Mr4PRTwzFvZzi-107" value="ЧТО ВЕРНУЛИ артикул (номер штрих-кода или QR кода)" style="rounded=1;whiteSpace=wrap;html=1;fontStyle=0" parent="1" vertex="1">
          <mxGeometry x="1850" y="1765" width="120" height="60" as="geometry" />
        </mxCell>
        <mxCell id="g6j7Yp6Mr4PRTwzFvZzi-111" value="" style="edgeStyle=orthogonalEdgeStyle;rounded=0;orthogonalLoop=1;jettySize=auto;html=1;fontStyle=0" parent="1" source="g6j7Yp6Mr4PRTwzFvZzi-109" target="g6j7Yp6Mr4PRTwzFvZzi-105" edge="1">
          <mxGeometry relative="1" as="geometry" />
        </mxCell>
        <mxCell id="g6j7Yp6Mr4PRTwzFvZzi-109" value="ИСТОРИЯ" style="rounded=1;whiteSpace=wrap;html=1;fontStyle=0" parent="1" vertex="1">
          <mxGeometry x="200" y="1460" width="120" height="60" as="geometry" />
        </mxCell>
        <mxCell id="g6j7Yp6Mr4PRTwzFvZzi-208" style="edgeStyle=orthogonalEdgeStyle;rounded=0;orthogonalLoop=1;jettySize=auto;html=1;" parent="1" source="g6j7Yp6Mr4PRTwzFvZzi-112" target="g6j7Yp6Mr4PRTwzFvZzi-122" edge="1">
          <mxGeometry relative="1" as="geometry" />
        </mxCell>
        <mxCell id="g6j7Yp6Mr4PRTwzFvZzi-209" style="edgeStyle=orthogonalEdgeStyle;rounded=0;orthogonalLoop=1;jettySize=auto;html=1;" parent="1" source="g6j7Yp6Mr4PRTwzFvZzi-112" target="g6j7Yp6Mr4PRTwzFvZzi-115" edge="1">
          <mxGeometry relative="1" as="geometry" />
        </mxCell>
        <mxCell id="g6j7Yp6Mr4PRTwzFvZzi-112" value="Общая выручка за день&lt;br&gt;" style="rounded=1;whiteSpace=wrap;html=1;fillColor=#fff2cc;strokeColor=#d6b656;fontStyle=0" parent="1" vertex="1">
          <mxGeometry x="1060" y="1530" width="140" height="70" as="geometry" />
        </mxCell>
        <mxCell id="g6j7Yp6Mr4PRTwzFvZzi-202" style="edgeStyle=orthogonalEdgeStyle;rounded=0;orthogonalLoop=1;jettySize=auto;html=1;entryX=0.5;entryY=0;entryDx=0;entryDy=0;exitX=0;exitY=0.5;exitDx=0;exitDy=0;" parent="1" source="g6j7Yp6Mr4PRTwzFvZzi-115" target="g6j7Yp6Mr4PRTwzFvZzi-185" edge="1">
          <mxGeometry relative="1" as="geometry" />
        </mxCell>
        <mxCell id="g6j7Yp6Mr4PRTwzFvZzi-203" style="edgeStyle=orthogonalEdgeStyle;rounded=0;orthogonalLoop=1;jettySize=auto;html=1;" parent="1" source="g6j7Yp6Mr4PRTwzFvZzi-115" target="g6j7Yp6Mr4PRTwzFvZzi-186" edge="1">
          <mxGeometry relative="1" as="geometry" />
        </mxCell>
        <mxCell id="g6j7Yp6Mr4PRTwzFvZzi-115" value="КРАТКАЯ ИНФОРМАЦИЯ" style="rounded=1;whiteSpace=wrap;html=1;fontStyle=0" parent="1" vertex="1">
          <mxGeometry x="1430" y="1690" width="120" height="60" as="geometry" />
        </mxCell>
        <mxCell id="g6j7Yp6Mr4PRTwzFvZzi-117" value="ЧТО БЫЛО КУПЛЕННО артикул (номер штрих-кода или QR кода)" style="rounded=1;whiteSpace=wrap;html=1;fontStyle=0" parent="1" vertex="1">
          <mxGeometry x="390" y="1890" width="120" height="60" as="geometry" />
        </mxCell>
        <mxCell id="g6j7Yp6Mr4PRTwzFvZzi-119" value="скидки" style="rounded=1;whiteSpace=wrap;html=1;fontStyle=0" parent="1" vertex="1">
          <mxGeometry x="390" y="1960" width="120" height="60" as="geometry" />
        </mxCell>
        <mxCell id="g6j7Yp6Mr4PRTwzFvZzi-120" value="уточнение по времени" style="rounded=1;whiteSpace=wrap;html=1;fontStyle=0" parent="1" vertex="1">
          <mxGeometry x="390" y="2030" width="120" height="60" as="geometry" />
        </mxCell>
        <mxCell id="g6j7Yp6Mr4PRTwzFvZzi-121" value="кем совершена покупка (номер или ФИО)" style="rounded=1;whiteSpace=wrap;html=1;fontStyle=0" parent="1" vertex="1">
          <mxGeometry x="390" y="2100" width="120" height="60" as="geometry" />
        </mxCell>
        <mxCell id="g6j7Yp6Mr4PRTwzFvZzi-153" style="edgeStyle=orthogonalEdgeStyle;rounded=0;orthogonalLoop=1;jettySize=auto;html=1;entryX=0.5;entryY=0;entryDx=0;entryDy=0;" parent="1" source="g6j7Yp6Mr4PRTwzFvZzi-122" target="g6j7Yp6Mr4PRTwzFvZzi-124" edge="1">
          <mxGeometry relative="1" as="geometry" />
        </mxCell>
        <mxCell id="g6j7Yp6Mr4PRTwzFvZzi-154" style="edgeStyle=orthogonalEdgeStyle;rounded=0;orthogonalLoop=1;jettySize=auto;html=1;" parent="1" source="g6j7Yp6Mr4PRTwzFvZzi-122" target="g6j7Yp6Mr4PRTwzFvZzi-123" edge="1">
          <mxGeometry relative="1" as="geometry" />
        </mxCell>
        <mxCell id="g6j7Yp6Mr4PRTwzFvZzi-122" value="История" style="rounded=1;whiteSpace=wrap;html=1;fontStyle=0" parent="1" vertex="1">
          <mxGeometry x="600" y="1690" width="120" height="60" as="geometry" />
        </mxCell>
        <mxCell id="g6j7Yp6Mr4PRTwzFvZzi-155" style="edgeStyle=orthogonalEdgeStyle;rounded=0;orthogonalLoop=1;jettySize=auto;html=1;entryX=0.5;entryY=0;entryDx=0;entryDy=0;" parent="1" source="g6j7Yp6Mr4PRTwzFvZzi-123" target="g6j7Yp6Mr4PRTwzFvZzi-140" edge="1">
          <mxGeometry relative="1" as="geometry" />
        </mxCell>
        <mxCell id="g6j7Yp6Mr4PRTwzFvZzi-156" style="edgeStyle=orthogonalEdgeStyle;rounded=0;orthogonalLoop=1;jettySize=auto;html=1;entryX=0.5;entryY=0;entryDx=0;entryDy=0;" parent="1" source="g6j7Yp6Mr4PRTwzFvZzi-123" target="g6j7Yp6Mr4PRTwzFvZzi-145" edge="1">
          <mxGeometry relative="1" as="geometry" />
        </mxCell>
        <mxCell id="g6j7Yp6Mr4PRTwzFvZzi-123" value="онлайн заказ" style="rounded=1;whiteSpace=wrap;html=1;fontStyle=0" parent="1" vertex="1">
          <mxGeometry x="850" y="1780" width="120" height="60" as="geometry" />
        </mxCell>
        <mxCell id="g6j7Yp6Mr4PRTwzFvZzi-173" style="edgeStyle=orthogonalEdgeStyle;rounded=0;orthogonalLoop=1;jettySize=auto;html=1;entryX=0;entryY=0.5;entryDx=0;entryDy=0;" parent="1" source="g6j7Yp6Mr4PRTwzFvZzi-124" target="g6j7Yp6Mr4PRTwzFvZzi-117" edge="1">
          <mxGeometry relative="1" as="geometry" />
        </mxCell>
        <mxCell id="g6j7Yp6Mr4PRTwzFvZzi-174" style="edgeStyle=orthogonalEdgeStyle;rounded=0;orthogonalLoop=1;jettySize=auto;html=1;entryX=1;entryY=0.5;entryDx=0;entryDy=0;" parent="1" source="g6j7Yp6Mr4PRTwzFvZzi-124" target="g6j7Yp6Mr4PRTwzFvZzi-168" edge="1">
          <mxGeometry relative="1" as="geometry" />
        </mxCell>
        <mxCell id="g6j7Yp6Mr4PRTwzFvZzi-175" style="edgeStyle=orthogonalEdgeStyle;rounded=0;orthogonalLoop=1;jettySize=auto;html=1;entryX=0;entryY=0.5;entryDx=0;entryDy=0;" parent="1" source="g6j7Yp6Mr4PRTwzFvZzi-124" target="g6j7Yp6Mr4PRTwzFvZzi-119" edge="1">
          <mxGeometry relative="1" as="geometry" />
        </mxCell>
        <mxCell id="g6j7Yp6Mr4PRTwzFvZzi-176" style="edgeStyle=orthogonalEdgeStyle;rounded=0;orthogonalLoop=1;jettySize=auto;html=1;entryX=0;entryY=0.5;entryDx=0;entryDy=0;" parent="1" source="g6j7Yp6Mr4PRTwzFvZzi-124" target="g6j7Yp6Mr4PRTwzFvZzi-120" edge="1">
          <mxGeometry relative="1" as="geometry" />
        </mxCell>
        <mxCell id="g6j7Yp6Mr4PRTwzFvZzi-177" style="edgeStyle=orthogonalEdgeStyle;rounded=0;orthogonalLoop=1;jettySize=auto;html=1;entryX=0;entryY=0.5;entryDx=0;entryDy=0;" parent="1" source="g6j7Yp6Mr4PRTwzFvZzi-124" target="g6j7Yp6Mr4PRTwzFvZzi-121" edge="1">
          <mxGeometry relative="1" as="geometry" />
        </mxCell>
        <mxCell id="g6j7Yp6Mr4PRTwzFvZzi-124" value="офлайн покупка" style="rounded=1;whiteSpace=wrap;html=1;fontStyle=0" parent="1" vertex="1">
          <mxGeometry x="300" y="1780" width="120" height="60" as="geometry" />
        </mxCell>
        <mxCell id="g6j7Yp6Mr4PRTwzFvZzi-125" value="карты" style="rounded=1;whiteSpace=wrap;html=1;fontStyle=0" parent="1" vertex="1">
          <mxGeometry x="160" y="2110" width="120" height="60" as="geometry" />
        </mxCell>
        <mxCell id="g6j7Yp6Mr4PRTwzFvZzi-132" value="ЧТО БЫЛО КУПЛЕННО артикул (номер штрих-кода или QR кода)" style="rounded=1;whiteSpace=wrap;html=1;fontStyle=0" parent="1" vertex="1">
          <mxGeometry x="770" y="1950" width="120" height="60" as="geometry" />
        </mxCell>
        <mxCell id="g6j7Yp6Mr4PRTwzFvZzi-134" value="скидки" style="rounded=1;whiteSpace=wrap;html=1;fontStyle=0" parent="1" vertex="1">
          <mxGeometry x="770" y="2020" width="120" height="60" as="geometry" />
        </mxCell>
        <mxCell id="g6j7Yp6Mr4PRTwzFvZzi-136" value="кем совершена покупка (номер или ФИО)" style="rounded=1;whiteSpace=wrap;html=1;fontStyle=0" parent="1" vertex="1">
          <mxGeometry x="770" y="2090" width="120" height="60" as="geometry" />
        </mxCell>
        <mxCell id="g6j7Yp6Mr4PRTwzFvZzi-161" style="edgeStyle=orthogonalEdgeStyle;rounded=0;orthogonalLoop=1;jettySize=auto;html=1;entryX=1;entryY=0.5;entryDx=0;entryDy=0;" parent="1" source="g6j7Yp6Mr4PRTwzFvZzi-140" target="g6j7Yp6Mr4PRTwzFvZzi-141" edge="1">
          <mxGeometry relative="1" as="geometry" />
        </mxCell>
        <mxCell id="g6j7Yp6Mr4PRTwzFvZzi-162" style="edgeStyle=orthogonalEdgeStyle;rounded=0;orthogonalLoop=1;jettySize=auto;html=1;entryX=0;entryY=0.5;entryDx=0;entryDy=0;" parent="1" source="g6j7Yp6Mr4PRTwzFvZzi-140" target="g6j7Yp6Mr4PRTwzFvZzi-132" edge="1">
          <mxGeometry relative="1" as="geometry" />
        </mxCell>
        <mxCell id="g6j7Yp6Mr4PRTwzFvZzi-163" style="edgeStyle=orthogonalEdgeStyle;rounded=0;orthogonalLoop=1;jettySize=auto;html=1;entryX=0;entryY=0.5;entryDx=0;entryDy=0;" parent="1" source="g6j7Yp6Mr4PRTwzFvZzi-140" target="g6j7Yp6Mr4PRTwzFvZzi-134" edge="1">
          <mxGeometry relative="1" as="geometry" />
        </mxCell>
        <mxCell id="g6j7Yp6Mr4PRTwzFvZzi-164" style="edgeStyle=orthogonalEdgeStyle;rounded=0;orthogonalLoop=1;jettySize=auto;html=1;entryX=0;entryY=0.5;entryDx=0;entryDy=0;" parent="1" source="g6j7Yp6Mr4PRTwzFvZzi-140" target="g6j7Yp6Mr4PRTwzFvZzi-136" edge="1">
          <mxGeometry relative="1" as="geometry" />
        </mxCell>
        <mxCell id="g6j7Yp6Mr4PRTwzFvZzi-140" value="реальный покупатель" style="rounded=1;whiteSpace=wrap;html=1;fontStyle=0" parent="1" vertex="1">
          <mxGeometry x="680" y="1860" width="120" height="60" as="geometry" />
        </mxCell>
        <mxCell id="g6j7Yp6Mr4PRTwzFvZzi-165" style="edgeStyle=orthogonalEdgeStyle;rounded=0;orthogonalLoop=1;jettySize=auto;html=1;entryX=1;entryY=0.5;entryDx=0;entryDy=0;" parent="1" source="g6j7Yp6Mr4PRTwzFvZzi-141" target="g6j7Yp6Mr4PRTwzFvZzi-143" edge="1">
          <mxGeometry relative="1" as="geometry">
            <Array as="points">
              <mxPoint x="680" y="2060" />
            </Array>
          </mxGeometry>
        </mxCell>
        <mxCell id="g6j7Yp6Mr4PRTwzFvZzi-141" value="СПОСОБ ОПЛАТЫ" style="rounded=1;whiteSpace=wrap;html=1;fontStyle=0" parent="1" vertex="1">
          <mxGeometry x="590" y="1950" width="120" height="60" as="geometry" />
        </mxCell>
        <mxCell id="g6j7Yp6Mr4PRTwzFvZzi-143" value="наличные" style="rounded=1;whiteSpace=wrap;html=1;fontStyle=0" parent="1" vertex="1">
          <mxGeometry x="540" y="2030" width="120" height="60" as="geometry" />
        </mxCell>
        <mxCell id="g6j7Yp6Mr4PRTwzFvZzi-144" value="переводы" style="rounded=1;whiteSpace=wrap;html=1;fontStyle=0" parent="1" vertex="1">
          <mxGeometry x="540" y="2100" width="120" height="60" as="geometry" />
        </mxCell>
        <mxCell id="g6j7Yp6Mr4PRTwzFvZzi-157" style="edgeStyle=orthogonalEdgeStyle;rounded=0;orthogonalLoop=1;jettySize=auto;html=1;entryX=1;entryY=0.5;entryDx=0;entryDy=0;" parent="1" source="g6j7Yp6Mr4PRTwzFvZzi-145" target="g6j7Yp6Mr4PRTwzFvZzi-146" edge="1">
          <mxGeometry relative="1" as="geometry" />
        </mxCell>
        <mxCell id="g6j7Yp6Mr4PRTwzFvZzi-158" style="edgeStyle=orthogonalEdgeStyle;rounded=0;orthogonalLoop=1;jettySize=auto;html=1;entryX=0;entryY=0.5;entryDx=0;entryDy=0;" parent="1" source="g6j7Yp6Mr4PRTwzFvZzi-145" target="g6j7Yp6Mr4PRTwzFvZzi-149" edge="1">
          <mxGeometry relative="1" as="geometry" />
        </mxCell>
        <mxCell id="g6j7Yp6Mr4PRTwzFvZzi-159" style="edgeStyle=orthogonalEdgeStyle;rounded=0;orthogonalLoop=1;jettySize=auto;html=1;entryX=1;entryY=0.5;entryDx=0;entryDy=0;" parent="1" source="g6j7Yp6Mr4PRTwzFvZzi-145" target="g6j7Yp6Mr4PRTwzFvZzi-147" edge="1">
          <mxGeometry relative="1" as="geometry" />
        </mxCell>
        <mxCell id="g6j7Yp6Mr4PRTwzFvZzi-160" style="edgeStyle=orthogonalEdgeStyle;rounded=0;orthogonalLoop=1;jettySize=auto;html=1;entryX=0;entryY=0.5;entryDx=0;entryDy=0;" parent="1" source="g6j7Yp6Mr4PRTwzFvZzi-145" target="g6j7Yp6Mr4PRTwzFvZzi-148" edge="1">
          <mxGeometry relative="1" as="geometry" />
        </mxCell>
        <mxCell id="g6j7Yp6Mr4PRTwzFvZzi-145" value="доставка в другой город (авито доставка)" style="rounded=1;whiteSpace=wrap;html=1;fontStyle=0" parent="1" vertex="1">
          <mxGeometry x="1010" y="1860" width="120" height="60" as="geometry" />
        </mxCell>
        <mxCell id="g6j7Yp6Mr4PRTwzFvZzi-146" value="ЧТО БЫЛО КУПЛЕННО артикул (номер штрих-кода или QR кода)" style="rounded=1;whiteSpace=wrap;html=1;fontStyle=0" parent="1" vertex="1">
          <mxGeometry x="920" y="1950" width="120" height="60" as="geometry" />
        </mxCell>
        <mxCell id="g6j7Yp6Mr4PRTwzFvZzi-147" value="скидки" style="rounded=1;whiteSpace=wrap;html=1;fontStyle=0" parent="1" vertex="1">
          <mxGeometry x="920" y="2020" width="120" height="60" as="geometry" />
        </mxCell>
        <mxCell id="g6j7Yp6Mr4PRTwzFvZzi-148" value="кем совершена покупка (номер или ФИО)" style="rounded=1;whiteSpace=wrap;html=1;fontStyle=0" parent="1" vertex="1">
          <mxGeometry x="1100" y="2020" width="120" height="60" as="geometry" />
        </mxCell>
        <mxCell id="g6j7Yp6Mr4PRTwzFvZzi-149" value="день отправки" style="rounded=1;whiteSpace=wrap;html=1;fontStyle=0" parent="1" vertex="1">
          <mxGeometry x="1100" y="1950" width="120" height="60" as="geometry" />
        </mxCell>
        <mxCell id="g6j7Yp6Mr4PRTwzFvZzi-166" style="edgeStyle=orthogonalEdgeStyle;rounded=0;orthogonalLoop=1;jettySize=auto;html=1;entryX=1;entryY=0.5;entryDx=0;entryDy=0;exitX=0.75;exitY=1;exitDx=0;exitDy=0;" parent="1" source="g6j7Yp6Mr4PRTwzFvZzi-141" target="g6j7Yp6Mr4PRTwzFvZzi-144" edge="1">
          <mxGeometry relative="1" as="geometry">
            <mxPoint x="690" y="2020" as="sourcePoint" />
            <mxPoint x="670" y="2070" as="targetPoint" />
            <Array as="points">
              <mxPoint x="680" y="2130" />
            </Array>
          </mxGeometry>
        </mxCell>
        <mxCell id="g6j7Yp6Mr4PRTwzFvZzi-167" style="edgeStyle=orthogonalEdgeStyle;rounded=0;orthogonalLoop=1;jettySize=auto;html=1;entryX=1;entryY=0.5;entryDx=0;entryDy=0;" parent="1" source="g6j7Yp6Mr4PRTwzFvZzi-168" target="g6j7Yp6Mr4PRTwzFvZzi-169" edge="1">
          <mxGeometry relative="1" as="geometry">
            <Array as="points">
              <mxPoint x="300" y="2000" />
            </Array>
          </mxGeometry>
        </mxCell>
        <mxCell id="g6j7Yp6Mr4PRTwzFvZzi-172" style="edgeStyle=orthogonalEdgeStyle;rounded=0;orthogonalLoop=1;jettySize=auto;html=1;entryX=1;entryY=0.5;entryDx=0;entryDy=0;" parent="1" source="g6j7Yp6Mr4PRTwzFvZzi-168" target="g6j7Yp6Mr4PRTwzFvZzi-125" edge="1">
          <mxGeometry relative="1" as="geometry">
            <Array as="points">
              <mxPoint x="300" y="2140" />
            </Array>
          </mxGeometry>
        </mxCell>
        <mxCell id="g6j7Yp6Mr4PRTwzFvZzi-168" value="СПОСОБ ОПЛАТЫ" style="rounded=1;whiteSpace=wrap;html=1;fontStyle=0" parent="1" vertex="1">
          <mxGeometry x="210" y="1890" width="120" height="60" as="geometry" />
        </mxCell>
        <mxCell id="g6j7Yp6Mr4PRTwzFvZzi-169" value="наличные" style="rounded=1;whiteSpace=wrap;html=1;fontStyle=0" parent="1" vertex="1">
          <mxGeometry x="160" y="1970" width="120" height="60" as="geometry" />
        </mxCell>
        <mxCell id="g6j7Yp6Mr4PRTwzFvZzi-170" value="переводы" style="rounded=1;whiteSpace=wrap;html=1;fontStyle=0" parent="1" vertex="1">
          <mxGeometry x="160" y="2040" width="120" height="60" as="geometry" />
        </mxCell>
        <mxCell id="g6j7Yp6Mr4PRTwzFvZzi-171" style="edgeStyle=orthogonalEdgeStyle;rounded=0;orthogonalLoop=1;jettySize=auto;html=1;entryX=1;entryY=0.5;entryDx=0;entryDy=0;exitX=0.75;exitY=1;exitDx=0;exitDy=0;" parent="1" source="g6j7Yp6Mr4PRTwzFvZzi-168" target="g6j7Yp6Mr4PRTwzFvZzi-170" edge="1">
          <mxGeometry relative="1" as="geometry">
            <mxPoint x="310" y="1960" as="sourcePoint" />
            <mxPoint x="290" y="2010" as="targetPoint" />
            <Array as="points">
              <mxPoint x="300" y="2070" />
            </Array>
          </mxGeometry>
        </mxCell>
        <mxCell id="g6j7Yp6Mr4PRTwzFvZzi-191" style="edgeStyle=orthogonalEdgeStyle;rounded=0;orthogonalLoop=1;jettySize=auto;html=1;entryX=1;entryY=0.5;entryDx=0;entryDy=0;" parent="1" source="g6j7Yp6Mr4PRTwzFvZzi-185" target="g6j7Yp6Mr4PRTwzFvZzi-187" edge="1">
          <mxGeometry relative="1" as="geometry" />
        </mxCell>
        <mxCell id="g6j7Yp6Mr4PRTwzFvZzi-192" style="edgeStyle=orthogonalEdgeStyle;rounded=0;orthogonalLoop=1;jettySize=auto;html=1;entryX=1;entryY=0.5;entryDx=0;entryDy=0;" parent="1" source="g6j7Yp6Mr4PRTwzFvZzi-185" target="g6j7Yp6Mr4PRTwzFvZzi-189" edge="1">
          <mxGeometry relative="1" as="geometry">
            <Array as="points">
              <mxPoint x="1390" y="1960" />
            </Array>
          </mxGeometry>
        </mxCell>
        <mxCell id="g6j7Yp6Mr4PRTwzFvZzi-205" style="edgeStyle=orthogonalEdgeStyle;rounded=0;orthogonalLoop=1;jettySize=auto;html=1;entryX=1;entryY=0.5;entryDx=0;entryDy=0;" parent="1" source="g6j7Yp6Mr4PRTwzFvZzi-185" target="g6j7Yp6Mr4PRTwzFvZzi-204" edge="1">
          <mxGeometry relative="1" as="geometry" />
        </mxCell>
        <mxCell id="g6j7Yp6Mr4PRTwzFvZzi-185" value="офлайн покупка" style="rounded=1;whiteSpace=wrap;html=1;fontStyle=0" parent="1" vertex="1">
          <mxGeometry x="1330" y="1790" width="120" height="60" as="geometry" />
        </mxCell>
        <mxCell id="g6j7Yp6Mr4PRTwzFvZzi-198" style="edgeStyle=orthogonalEdgeStyle;rounded=0;orthogonalLoop=1;jettySize=auto;html=1;entryX=0;entryY=0.5;entryDx=0;entryDy=0;" parent="1" source="g6j7Yp6Mr4PRTwzFvZzi-186" target="g6j7Yp6Mr4PRTwzFvZzi-194" edge="1">
          <mxGeometry relative="1" as="geometry" />
        </mxCell>
        <mxCell id="g6j7Yp6Mr4PRTwzFvZzi-199" style="edgeStyle=orthogonalEdgeStyle;rounded=0;orthogonalLoop=1;jettySize=auto;html=1;entryX=0;entryY=0.5;entryDx=0;entryDy=0;" parent="1" source="g6j7Yp6Mr4PRTwzFvZzi-186" target="g6j7Yp6Mr4PRTwzFvZzi-196" edge="1">
          <mxGeometry relative="1" as="geometry" />
        </mxCell>
        <mxCell id="g6j7Yp6Mr4PRTwzFvZzi-200" style="edgeStyle=orthogonalEdgeStyle;rounded=0;orthogonalLoop=1;jettySize=auto;html=1;entryX=0;entryY=0.5;entryDx=0;entryDy=0;" parent="1" source="g6j7Yp6Mr4PRTwzFvZzi-186" target="g6j7Yp6Mr4PRTwzFvZzi-197" edge="1">
          <mxGeometry relative="1" as="geometry" />
        </mxCell>
        <mxCell id="g6j7Yp6Mr4PRTwzFvZzi-186" value="онлайн заказ" style="rounded=1;whiteSpace=wrap;html=1;fontStyle=0" parent="1" vertex="1">
          <mxGeometry x="1560" y="1790" width="120" height="60" as="geometry" />
        </mxCell>
        <mxCell id="g6j7Yp6Mr4PRTwzFvZzi-187" value="Общие выводы на текуций момент и выводы по разным видам оплаты" style="rounded=1;whiteSpace=wrap;html=1;fontStyle=0" parent="1" vertex="1">
          <mxGeometry x="1240" y="1860" width="120" height="60" as="geometry" />
        </mxCell>
        <mxCell id="g6j7Yp6Mr4PRTwzFvZzi-189" value="скидки" style="rounded=1;whiteSpace=wrap;html=1;fontStyle=0" parent="1" vertex="1">
          <mxGeometry x="1240" y="1930" width="120" height="60" as="geometry" />
        </mxCell>
        <mxCell id="g6j7Yp6Mr4PRTwzFvZzi-194" value="скидки" style="rounded=1;whiteSpace=wrap;html=1;fontStyle=0" parent="1" vertex="1">
          <mxGeometry x="1650" y="1860" width="120" height="60" as="geometry" />
        </mxCell>
        <mxCell id="g6j7Yp6Mr4PRTwzFvZzi-196" value="Общие выводы на текуций момент и выводы по разным видам оплаты" style="rounded=1;whiteSpace=wrap;html=1;fontStyle=0" parent="1" vertex="1">
          <mxGeometry x="1650" y="1930" width="120" height="60" as="geometry" />
        </mxCell>
        <mxCell id="g6j7Yp6Mr4PRTwzFvZzi-197" value="На кукую сумму отправили доставками" style="rounded=1;whiteSpace=wrap;html=1;fontStyle=0" parent="1" vertex="1">
          <mxGeometry x="1650" y="2000" width="120" height="60" as="geometry" />
        </mxCell>
        <mxCell id="g6j7Yp6Mr4PRTwzFvZzi-204" value="суммы возвратов" style="rounded=1;whiteSpace=wrap;html=1;fontStyle=0" parent="1" vertex="1">
          <mxGeometry x="1240" y="2000" width="120" height="60" as="geometry" />
        </mxCell>
        <mxCell id="f1MAnPl3ED0NsZfVG7fc-111" style="edgeStyle=orthogonalEdgeStyle;rounded=0;orthogonalLoop=1;jettySize=auto;html=1;entryX=0.5;entryY=0;entryDx=0;entryDy=0;strokeWidth=2;fontStyle=0;horizontal=1;verticalAlign=middle;" edge="1" parent="1" source="f1MAnPl3ED0NsZfVG7fc-1" target="f1MAnPl3ED0NsZfVG7fc-2">
          <mxGeometry relative="1" as="geometry">
            <Array as="points">
              <mxPoint x="580" y="2480" />
              <mxPoint x="360" y="2480" />
            </Array>
          </mxGeometry>
        </mxCell>
        <mxCell id="f1MAnPl3ED0NsZfVG7fc-112" style="edgeStyle=orthogonalEdgeStyle;rounded=0;orthogonalLoop=1;jettySize=auto;html=1;strokeWidth=2;fontStyle=0;horizontal=1;verticalAlign=middle;" edge="1" parent="1" source="f1MAnPl3ED0NsZfVG7fc-1" target="f1MAnPl3ED0NsZfVG7fc-5">
          <mxGeometry relative="1" as="geometry">
            <Array as="points">
              <mxPoint x="580" y="2480" />
              <mxPoint x="-120" y="2480" />
            </Array>
          </mxGeometry>
        </mxCell>
        <mxCell id="f1MAnPl3ED0NsZfVG7fc-113" style="edgeStyle=orthogonalEdgeStyle;rounded=0;orthogonalLoop=1;jettySize=auto;html=1;entryX=0.5;entryY=0;entryDx=0;entryDy=0;strokeWidth=2;fontStyle=0;horizontal=1;verticalAlign=middle;" edge="1" parent="1" source="f1MAnPl3ED0NsZfVG7fc-1" target="f1MAnPl3ED0NsZfVG7fc-3">
          <mxGeometry relative="1" as="geometry">
            <Array as="points">
              <mxPoint x="580" y="2480" />
              <mxPoint x="830" y="2480" />
            </Array>
          </mxGeometry>
        </mxCell>
        <mxCell id="f1MAnPl3ED0NsZfVG7fc-114" style="edgeStyle=orthogonalEdgeStyle;rounded=0;orthogonalLoop=1;jettySize=auto;html=1;entryX=0.5;entryY=0;entryDx=0;entryDy=0;strokeWidth=2;fontStyle=0;horizontal=1;verticalAlign=middle;" edge="1" parent="1" source="f1MAnPl3ED0NsZfVG7fc-1" target="f1MAnPl3ED0NsZfVG7fc-4">
          <mxGeometry relative="1" as="geometry">
            <Array as="points">
              <mxPoint x="580" y="2480" />
              <mxPoint x="1220" y="2480" />
            </Array>
          </mxGeometry>
        </mxCell>
        <mxCell id="f1MAnPl3ED0NsZfVG7fc-1" value="Меню продавца" style="rounded=1;whiteSpace=wrap;html=1;fillColor=#f8cecc;strokeColor=#b85450;strokeWidth=2;fontStyle=1;horizontal=1;verticalAlign=middle;" vertex="1" parent="1">
          <mxGeometry x="500" y="2370" width="160" height="80" as="geometry" />
        </mxCell>
        <mxCell id="f1MAnPl3ED0NsZfVG7fc-22" style="edgeStyle=orthogonalEdgeStyle;rounded=0;orthogonalLoop=1;jettySize=auto;html=1;entryX=0;entryY=0.5;entryDx=0;entryDy=0;strokeWidth=2;fontStyle=0;horizontal=1;verticalAlign=middle;" edge="1" parent="1" source="f1MAnPl3ED0NsZfVG7fc-2" target="f1MAnPl3ED0NsZfVG7fc-6">
          <mxGeometry relative="1" as="geometry" />
        </mxCell>
        <mxCell id="f1MAnPl3ED0NsZfVG7fc-23" style="edgeStyle=orthogonalEdgeStyle;rounded=0;orthogonalLoop=1;jettySize=auto;html=1;entryX=1;entryY=0.5;entryDx=0;entryDy=0;strokeWidth=2;fontStyle=0;horizontal=1;verticalAlign=middle;" edge="1" parent="1" source="f1MAnPl3ED0NsZfVG7fc-2" target="f1MAnPl3ED0NsZfVG7fc-18">
          <mxGeometry relative="1" as="geometry" />
        </mxCell>
        <mxCell id="f1MAnPl3ED0NsZfVG7fc-24" style="edgeStyle=orthogonalEdgeStyle;rounded=0;orthogonalLoop=1;jettySize=auto;html=1;entryX=0;entryY=0.5;entryDx=0;entryDy=0;strokeWidth=2;fontStyle=0;horizontal=1;verticalAlign=middle;" edge="1" parent="1" source="f1MAnPl3ED0NsZfVG7fc-2" target="f1MAnPl3ED0NsZfVG7fc-7">
          <mxGeometry relative="1" as="geometry" />
        </mxCell>
        <mxCell id="f1MAnPl3ED0NsZfVG7fc-25" style="edgeStyle=orthogonalEdgeStyle;rounded=0;orthogonalLoop=1;jettySize=auto;html=1;entryX=0;entryY=0.5;entryDx=0;entryDy=0;strokeWidth=2;fontStyle=0;horizontal=1;verticalAlign=middle;" edge="1" parent="1" source="f1MAnPl3ED0NsZfVG7fc-2" target="f1MAnPl3ED0NsZfVG7fc-8">
          <mxGeometry relative="1" as="geometry" />
        </mxCell>
        <mxCell id="f1MAnPl3ED0NsZfVG7fc-26" style="edgeStyle=orthogonalEdgeStyle;rounded=0;orthogonalLoop=1;jettySize=auto;html=1;entryX=0;entryY=0.5;entryDx=0;entryDy=0;strokeWidth=2;fontStyle=0;horizontal=1;verticalAlign=middle;" edge="1" parent="1" source="f1MAnPl3ED0NsZfVG7fc-2" target="f1MAnPl3ED0NsZfVG7fc-9">
          <mxGeometry relative="1" as="geometry" />
        </mxCell>
        <mxCell id="f1MAnPl3ED0NsZfVG7fc-28" style="edgeStyle=orthogonalEdgeStyle;rounded=0;orthogonalLoop=1;jettySize=auto;html=1;entryX=0;entryY=0.5;entryDx=0;entryDy=0;strokeWidth=2;fontStyle=0;horizontal=1;verticalAlign=middle;" edge="1" parent="1" source="f1MAnPl3ED0NsZfVG7fc-2" target="f1MAnPl3ED0NsZfVG7fc-27">
          <mxGeometry relative="1" as="geometry" />
        </mxCell>
        <mxCell id="f1MAnPl3ED0NsZfVG7fc-30" style="edgeStyle=orthogonalEdgeStyle;rounded=0;orthogonalLoop=1;jettySize=auto;html=1;entryX=0;entryY=0.5;entryDx=0;entryDy=0;strokeWidth=2;fontStyle=0;horizontal=1;verticalAlign=middle;" edge="1" parent="1" source="f1MAnPl3ED0NsZfVG7fc-2" target="f1MAnPl3ED0NsZfVG7fc-29">
          <mxGeometry relative="1" as="geometry" />
        </mxCell>
        <mxCell id="f1MAnPl3ED0NsZfVG7fc-2" value="Общая выручка за день: ИСТОРИЯ" style="rounded=1;whiteSpace=wrap;html=1;fillColor=#ffe6cc;strokeColor=#d79b00;fontStyle=1;strokeWidth=2;horizontal=1;verticalAlign=middle;" vertex="1" parent="1">
          <mxGeometry x="280" y="2520" width="160" height="80" as="geometry" />
        </mxCell>
        <mxCell id="f1MAnPl3ED0NsZfVG7fc-66" style="edgeStyle=orthogonalEdgeStyle;rounded=0;orthogonalLoop=1;jettySize=auto;html=1;entryX=0.5;entryY=0;entryDx=0;entryDy=0;strokeWidth=2;fontStyle=0;horizontal=1;verticalAlign=middle;" edge="1" parent="1" source="f1MAnPl3ED0NsZfVG7fc-3" target="f1MAnPl3ED0NsZfVG7fc-48">
          <mxGeometry relative="1" as="geometry" />
        </mxCell>
        <mxCell id="f1MAnPl3ED0NsZfVG7fc-68" style="edgeStyle=orthogonalEdgeStyle;rounded=0;orthogonalLoop=1;jettySize=auto;html=1;entryX=0.5;entryY=0;entryDx=0;entryDy=0;strokeWidth=2;fontStyle=0;horizontal=1;verticalAlign=middle;" edge="1" parent="1" source="f1MAnPl3ED0NsZfVG7fc-3" target="f1MAnPl3ED0NsZfVG7fc-41">
          <mxGeometry relative="1" as="geometry">
            <Array as="points">
              <mxPoint x="830" y="2630" />
              <mxPoint x="660" y="2630" />
            </Array>
          </mxGeometry>
        </mxCell>
        <mxCell id="f1MAnPl3ED0NsZfVG7fc-69" style="edgeStyle=orthogonalEdgeStyle;rounded=0;orthogonalLoop=1;jettySize=auto;html=1;entryX=0.5;entryY=0;entryDx=0;entryDy=0;strokeWidth=2;fontStyle=0;horizontal=1;verticalAlign=middle;" edge="1" parent="1" source="f1MAnPl3ED0NsZfVG7fc-3" target="f1MAnPl3ED0NsZfVG7fc-62">
          <mxGeometry relative="1" as="geometry">
            <Array as="points">
              <mxPoint x="830" y="2630" />
              <mxPoint x="1000" y="2630" />
            </Array>
          </mxGeometry>
        </mxCell>
        <mxCell id="f1MAnPl3ED0NsZfVG7fc-3" value="Общая выручка за день: КРАТКАЯ ИНФОРМАЦИЯ" style="rounded=1;whiteSpace=wrap;html=1;fillColor=#ffe6cc;strokeColor=#d79b00;fontStyle=1;strokeWidth=2;horizontal=1;verticalAlign=middle;" vertex="1" parent="1">
          <mxGeometry x="750" y="2520" width="160" height="80" as="geometry" />
        </mxCell>
        <mxCell id="f1MAnPl3ED0NsZfVG7fc-75" style="edgeStyle=orthogonalEdgeStyle;rounded=0;orthogonalLoop=1;jettySize=auto;html=1;entryX=1;entryY=0.5;entryDx=0;entryDy=0;strokeWidth=2;fontStyle=0;horizontal=1;verticalAlign=middle;" edge="1" parent="1" source="f1MAnPl3ED0NsZfVG7fc-4" target="f1MAnPl3ED0NsZfVG7fc-70">
          <mxGeometry relative="1" as="geometry" />
        </mxCell>
        <mxCell id="f1MAnPl3ED0NsZfVG7fc-76" style="edgeStyle=orthogonalEdgeStyle;rounded=0;orthogonalLoop=1;jettySize=auto;html=1;entryX=1;entryY=0.5;entryDx=0;entryDy=0;strokeWidth=2;fontStyle=0;horizontal=1;verticalAlign=middle;" edge="1" parent="1" source="f1MAnPl3ED0NsZfVG7fc-4" target="f1MAnPl3ED0NsZfVG7fc-72">
          <mxGeometry relative="1" as="geometry" />
        </mxCell>
        <mxCell id="f1MAnPl3ED0NsZfVG7fc-77" style="edgeStyle=orthogonalEdgeStyle;rounded=0;orthogonalLoop=1;jettySize=auto;html=1;entryX=0;entryY=0.5;entryDx=0;entryDy=0;strokeWidth=2;fontStyle=0;horizontal=1;verticalAlign=middle;" edge="1" parent="1" source="f1MAnPl3ED0NsZfVG7fc-4" target="f1MAnPl3ED0NsZfVG7fc-73">
          <mxGeometry relative="1" as="geometry" />
        </mxCell>
        <mxCell id="f1MAnPl3ED0NsZfVG7fc-78" style="edgeStyle=orthogonalEdgeStyle;rounded=0;orthogonalLoop=1;jettySize=auto;html=1;entryX=0;entryY=0.5;entryDx=0;entryDy=0;strokeWidth=2;fontStyle=0;horizontal=1;verticalAlign=middle;" edge="1" parent="1" source="f1MAnPl3ED0NsZfVG7fc-4" target="f1MAnPl3ED0NsZfVG7fc-74">
          <mxGeometry relative="1" as="geometry" />
        </mxCell>
        <mxCell id="f1MAnPl3ED0NsZfVG7fc-4" value="ВОЗВРАТ" style="rounded=1;whiteSpace=wrap;html=1;fillColor=#ffe6cc;strokeColor=#d79b00;fontStyle=1;strokeWidth=2;horizontal=1;verticalAlign=middle;" vertex="1" parent="1">
          <mxGeometry x="1140" y="2520" width="160" height="80" as="geometry" />
        </mxCell>
        <mxCell id="f1MAnPl3ED0NsZfVG7fc-109" style="edgeStyle=orthogonalEdgeStyle;rounded=0;orthogonalLoop=1;jettySize=auto;html=1;entryX=0.5;entryY=0;entryDx=0;entryDy=0;strokeWidth=2;fontStyle=0;horizontal=1;verticalAlign=middle;" edge="1" parent="1" source="f1MAnPl3ED0NsZfVG7fc-5" target="f1MAnPl3ED0NsZfVG7fc-106">
          <mxGeometry relative="1" as="geometry" />
        </mxCell>
        <mxCell id="f1MAnPl3ED0NsZfVG7fc-110" style="edgeStyle=orthogonalEdgeStyle;rounded=0;orthogonalLoop=1;jettySize=auto;html=1;entryX=0.5;entryY=0;entryDx=0;entryDy=0;strokeWidth=2;fontStyle=0;horizontal=1;verticalAlign=middle;" edge="1" parent="1" source="f1MAnPl3ED0NsZfVG7fc-5" target="f1MAnPl3ED0NsZfVG7fc-79">
          <mxGeometry relative="1" as="geometry" />
        </mxCell>
        <mxCell id="f1MAnPl3ED0NsZfVG7fc-5" value="ИНТЕРНЕТ ЗАКАЗЫ: ОТПРАВКА И ПРИНЯТИЕ" style="rounded=1;whiteSpace=wrap;html=1;fillColor=#ffe6cc;strokeColor=#d79b00;fontStyle=1;strokeWidth=2;horizontal=1;verticalAlign=middle;" vertex="1" parent="1">
          <mxGeometry x="-200" y="2520" width="160" height="80" as="geometry" />
        </mxCell>
        <mxCell id="f1MAnPl3ED0NsZfVG7fc-6" value="ЧТО БЫЛО КУПЛЕННО артикул (номер штрих-кода или QR кода)" style="rounded=1;whiteSpace=wrap;html=1;fontStyle=0;fillColor=#d5e8d4;strokeColor=#82b366;strokeWidth=2;horizontal=1;verticalAlign=middle;" vertex="1" parent="1">
          <mxGeometry x="390" y="2660" width="120" height="60" as="geometry" />
        </mxCell>
        <mxCell id="f1MAnPl3ED0NsZfVG7fc-7" value="скидки" style="rounded=1;whiteSpace=wrap;html=1;fontStyle=0;fillColor=#d5e8d4;strokeColor=#82b366;strokeWidth=2;horizontal=1;verticalAlign=middle;" vertex="1" parent="1">
          <mxGeometry x="390" y="2730" width="120" height="60" as="geometry" />
        </mxCell>
        <mxCell id="f1MAnPl3ED0NsZfVG7fc-8" value="уточнение по времени" style="rounded=1;whiteSpace=wrap;html=1;fontStyle=0;fillColor=#d5e8d4;strokeColor=#82b366;strokeWidth=2;horizontal=1;verticalAlign=middle;" vertex="1" parent="1">
          <mxGeometry x="390" y="2800" width="120" height="60" as="geometry" />
        </mxCell>
        <mxCell id="f1MAnPl3ED0NsZfVG7fc-9" value="кем совершена покупка (номер или ФИО)" style="rounded=1;whiteSpace=wrap;html=1;fontStyle=0;fillColor=#d5e8d4;strokeColor=#82b366;strokeWidth=2;horizontal=1;verticalAlign=middle;" vertex="1" parent="1">
          <mxGeometry x="390" y="2870" width="120" height="60" as="geometry" />
        </mxCell>
        <mxCell id="f1MAnPl3ED0NsZfVG7fc-15" value="карты" style="rounded=1;whiteSpace=wrap;html=1;fontStyle=0;fillColor=#dae8fc;strokeColor=#6c8ebf;strokeWidth=2;horizontal=1;verticalAlign=middle;" vertex="1" parent="1">
          <mxGeometry x="160" y="2880" width="120" height="60" as="geometry" />
        </mxCell>
        <mxCell id="f1MAnPl3ED0NsZfVG7fc-16" style="edgeStyle=orthogonalEdgeStyle;rounded=0;orthogonalLoop=1;jettySize=auto;html=1;entryX=1;entryY=0.5;entryDx=0;entryDy=0;strokeWidth=2;fontStyle=0;horizontal=1;verticalAlign=middle;" edge="1" parent="1" source="f1MAnPl3ED0NsZfVG7fc-18" target="f1MAnPl3ED0NsZfVG7fc-19">
          <mxGeometry relative="1" as="geometry">
            <Array as="points">
              <mxPoint x="300" y="2770" />
            </Array>
          </mxGeometry>
        </mxCell>
        <mxCell id="f1MAnPl3ED0NsZfVG7fc-17" style="edgeStyle=orthogonalEdgeStyle;rounded=0;orthogonalLoop=1;jettySize=auto;html=1;entryX=1;entryY=0.5;entryDx=0;entryDy=0;strokeWidth=2;fontStyle=0;horizontal=1;verticalAlign=middle;" edge="1" parent="1" source="f1MAnPl3ED0NsZfVG7fc-18" target="f1MAnPl3ED0NsZfVG7fc-15">
          <mxGeometry relative="1" as="geometry">
            <Array as="points">
              <mxPoint x="300" y="2910" />
            </Array>
          </mxGeometry>
        </mxCell>
        <mxCell id="f1MAnPl3ED0NsZfVG7fc-18" value="СПОСОБ ОПЛАТЫ" style="rounded=1;whiteSpace=wrap;html=1;fontStyle=0;fillColor=#d5e8d4;strokeColor=#82b366;strokeWidth=2;horizontal=1;verticalAlign=middle;" vertex="1" parent="1">
          <mxGeometry x="210" y="2660" width="120" height="60" as="geometry" />
        </mxCell>
        <mxCell id="f1MAnPl3ED0NsZfVG7fc-19" value="наличные" style="rounded=1;whiteSpace=wrap;html=1;fontStyle=0;fillColor=#dae8fc;strokeColor=#6c8ebf;strokeWidth=2;horizontal=1;verticalAlign=middle;" vertex="1" parent="1">
          <mxGeometry x="160" y="2740" width="120" height="60" as="geometry" />
        </mxCell>
        <mxCell id="f1MAnPl3ED0NsZfVG7fc-20" value="переводы" style="rounded=1;whiteSpace=wrap;html=1;fontStyle=0;fillColor=#dae8fc;strokeColor=#6c8ebf;strokeWidth=2;horizontal=1;verticalAlign=middle;" vertex="1" parent="1">
          <mxGeometry x="160" y="2810" width="120" height="60" as="geometry" />
        </mxCell>
        <mxCell id="f1MAnPl3ED0NsZfVG7fc-21" style="edgeStyle=orthogonalEdgeStyle;rounded=0;orthogonalLoop=1;jettySize=auto;html=1;entryX=1;entryY=0.5;entryDx=0;entryDy=0;exitX=0.75;exitY=1;exitDx=0;exitDy=0;strokeWidth=2;fontStyle=0;horizontal=1;verticalAlign=middle;" edge="1" parent="1" source="f1MAnPl3ED0NsZfVG7fc-18" target="f1MAnPl3ED0NsZfVG7fc-20">
          <mxGeometry relative="1" as="geometry">
            <mxPoint x="310" y="2730" as="sourcePoint" />
            <mxPoint x="290" y="2780" as="targetPoint" />
            <Array as="points">
              <mxPoint x="300" y="2840" />
            </Array>
          </mxGeometry>
        </mxCell>
        <mxCell id="f1MAnPl3ED0NsZfVG7fc-27" value="кем совершена продажа&amp;nbsp;" style="rounded=1;whiteSpace=wrap;html=1;fontStyle=0;fillColor=#d5e8d4;strokeColor=#82b366;strokeWidth=2;horizontal=1;verticalAlign=middle;" vertex="1" parent="1">
          <mxGeometry x="390" y="2940" width="120" height="60" as="geometry" />
        </mxCell>
        <mxCell id="f1MAnPl3ED0NsZfVG7fc-29" value="цена" style="rounded=1;whiteSpace=wrap;html=1;fontStyle=0;fillColor=#d5e8d4;strokeColor=#82b366;strokeWidth=2;horizontal=1;verticalAlign=middle;" vertex="1" parent="1">
          <mxGeometry x="390" y="3010" width="120" height="60" as="geometry" />
        </mxCell>
        <mxCell id="f1MAnPl3ED0NsZfVG7fc-38" value="карты" style="rounded=1;whiteSpace=wrap;html=1;fontStyle=0;fillColor=#d5e8d4;strokeColor=#82b366;strokeWidth=2;horizontal=1;verticalAlign=middle;" vertex="1" parent="1">
          <mxGeometry x="550" y="2890" width="120" height="60" as="geometry" />
        </mxCell>
        <mxCell id="f1MAnPl3ED0NsZfVG7fc-39" style="edgeStyle=orthogonalEdgeStyle;rounded=0;orthogonalLoop=1;jettySize=auto;html=1;entryX=1;entryY=0.5;entryDx=0;entryDy=0;strokeWidth=2;fontStyle=0;horizontal=1;verticalAlign=middle;" edge="1" parent="1" source="f1MAnPl3ED0NsZfVG7fc-41" target="f1MAnPl3ED0NsZfVG7fc-42">
          <mxGeometry relative="1" as="geometry">
            <Array as="points">
              <mxPoint x="690" y="2780" />
            </Array>
          </mxGeometry>
        </mxCell>
        <mxCell id="f1MAnPl3ED0NsZfVG7fc-40" style="edgeStyle=orthogonalEdgeStyle;rounded=0;orthogonalLoop=1;jettySize=auto;html=1;entryX=1;entryY=0.5;entryDx=0;entryDy=0;strokeWidth=2;fontStyle=0;horizontal=1;verticalAlign=middle;" edge="1" parent="1" source="f1MAnPl3ED0NsZfVG7fc-41" target="f1MAnPl3ED0NsZfVG7fc-38">
          <mxGeometry relative="1" as="geometry">
            <Array as="points">
              <mxPoint x="690" y="2920" />
            </Array>
          </mxGeometry>
        </mxCell>
        <mxCell id="f1MAnPl3ED0NsZfVG7fc-41" value="Виды оплат" style="rounded=1;whiteSpace=wrap;html=1;fontStyle=1;fillColor=#fff2cc;strokeColor=#d6b656;strokeWidth=2;horizontal=1;verticalAlign=middle;" vertex="1" parent="1">
          <mxGeometry x="600" y="2670" width="120" height="60" as="geometry" />
        </mxCell>
        <mxCell id="f1MAnPl3ED0NsZfVG7fc-42" value="наличные" style="rounded=1;whiteSpace=wrap;html=1;fontStyle=0;fillColor=#d5e8d4;strokeColor=#82b366;strokeWidth=2;horizontal=1;verticalAlign=middle;" vertex="1" parent="1">
          <mxGeometry x="550" y="2750" width="120" height="60" as="geometry" />
        </mxCell>
        <mxCell id="f1MAnPl3ED0NsZfVG7fc-43" value="переводы" style="rounded=1;whiteSpace=wrap;html=1;fontStyle=0;fillColor=#d5e8d4;strokeColor=#82b366;strokeWidth=2;horizontal=1;verticalAlign=middle;" vertex="1" parent="1">
          <mxGeometry x="550" y="2820" width="120" height="60" as="geometry" />
        </mxCell>
        <mxCell id="f1MAnPl3ED0NsZfVG7fc-44" style="edgeStyle=orthogonalEdgeStyle;rounded=0;orthogonalLoop=1;jettySize=auto;html=1;entryX=1;entryY=0.5;entryDx=0;entryDy=0;exitX=0.75;exitY=1;exitDx=0;exitDy=0;strokeWidth=2;fontStyle=0;horizontal=1;verticalAlign=middle;" edge="1" parent="1" source="f1MAnPl3ED0NsZfVG7fc-41" target="f1MAnPl3ED0NsZfVG7fc-43">
          <mxGeometry relative="1" as="geometry">
            <mxPoint x="700" y="2740" as="sourcePoint" />
            <mxPoint x="680" y="2790" as="targetPoint" />
            <Array as="points">
              <mxPoint x="690" y="2850" />
            </Array>
          </mxGeometry>
        </mxCell>
        <mxCell id="f1MAnPl3ED0NsZfVG7fc-46" style="edgeStyle=orthogonalEdgeStyle;rounded=0;orthogonalLoop=1;jettySize=auto;html=1;entryX=1;entryY=0.5;entryDx=0;entryDy=0;strokeWidth=2;fontStyle=0;horizontal=1;verticalAlign=middle;" edge="1" parent="1" source="f1MAnPl3ED0NsZfVG7fc-48" target="f1MAnPl3ED0NsZfVG7fc-49">
          <mxGeometry relative="1" as="geometry">
            <Array as="points">
              <mxPoint x="860" y="2780" />
            </Array>
          </mxGeometry>
        </mxCell>
        <mxCell id="f1MAnPl3ED0NsZfVG7fc-48" value="Скидки (если есть)" style="rounded=1;whiteSpace=wrap;html=1;fontStyle=1;fillColor=#fff2cc;strokeColor=#d6b656;strokeWidth=2;horizontal=1;verticalAlign=middle;" vertex="1" parent="1">
          <mxGeometry x="770" y="2670" width="120" height="60" as="geometry" />
        </mxCell>
        <mxCell id="f1MAnPl3ED0NsZfVG7fc-49" value="Артикул" style="rounded=1;whiteSpace=wrap;html=1;fontStyle=0;fillColor=#d5e8d4;strokeColor=#82b366;strokeWidth=2;horizontal=1;verticalAlign=middle;" vertex="1" parent="1">
          <mxGeometry x="720" y="2750" width="120" height="60" as="geometry" />
        </mxCell>
        <mxCell id="f1MAnPl3ED0NsZfVG7fc-50" value="скидка" style="rounded=1;whiteSpace=wrap;html=1;fontStyle=0;fillColor=#d5e8d4;strokeColor=#82b366;strokeWidth=2;horizontal=1;verticalAlign=middle;" vertex="1" parent="1">
          <mxGeometry x="720" y="2820" width="120" height="60" as="geometry" />
        </mxCell>
        <mxCell id="f1MAnPl3ED0NsZfVG7fc-51" style="edgeStyle=orthogonalEdgeStyle;rounded=0;orthogonalLoop=1;jettySize=auto;html=1;entryX=1;entryY=0.5;entryDx=0;entryDy=0;exitX=0.75;exitY=1;exitDx=0;exitDy=0;strokeWidth=2;fontStyle=0;horizontal=1;verticalAlign=middle;" edge="1" parent="1" source="f1MAnPl3ED0NsZfVG7fc-48" target="f1MAnPl3ED0NsZfVG7fc-50">
          <mxGeometry relative="1" as="geometry">
            <mxPoint x="870" y="2740" as="sourcePoint" />
            <mxPoint x="850" y="2790" as="targetPoint" />
            <Array as="points">
              <mxPoint x="860" y="2850" />
            </Array>
          </mxGeometry>
        </mxCell>
        <mxCell id="f1MAnPl3ED0NsZfVG7fc-60" style="edgeStyle=orthogonalEdgeStyle;rounded=0;orthogonalLoop=1;jettySize=auto;html=1;entryX=1;entryY=0.5;entryDx=0;entryDy=0;strokeWidth=2;fontStyle=0;horizontal=1;verticalAlign=middle;" edge="1" parent="1" source="f1MAnPl3ED0NsZfVG7fc-62" target="f1MAnPl3ED0NsZfVG7fc-63">
          <mxGeometry relative="1" as="geometry">
            <Array as="points">
              <mxPoint x="1030" y="2780" />
            </Array>
          </mxGeometry>
        </mxCell>
        <mxCell id="f1MAnPl3ED0NsZfVG7fc-62" value="Возвраты" style="rounded=1;whiteSpace=wrap;html=1;fontStyle=1;fillColor=#fff2cc;strokeColor=#d6b656;strokeWidth=2;horizontal=1;verticalAlign=middle;" vertex="1" parent="1">
          <mxGeometry x="940" y="2670" width="120" height="60" as="geometry" />
        </mxCell>
        <mxCell id="f1MAnPl3ED0NsZfVG7fc-63" value="Артикул" style="rounded=1;whiteSpace=wrap;html=1;fontStyle=0;fillColor=#d5e8d4;strokeColor=#82b366;strokeWidth=2;horizontal=1;verticalAlign=middle;" vertex="1" parent="1">
          <mxGeometry x="890" y="2750" width="120" height="60" as="geometry" />
        </mxCell>
        <mxCell id="f1MAnPl3ED0NsZfVG7fc-64" value="Сколько вернули денег" style="rounded=1;whiteSpace=wrap;html=1;fontStyle=0;fillColor=#d5e8d4;strokeColor=#82b366;strokeWidth=2;horizontal=1;verticalAlign=middle;" vertex="1" parent="1">
          <mxGeometry x="890" y="2820" width="120" height="60" as="geometry" />
        </mxCell>
        <mxCell id="f1MAnPl3ED0NsZfVG7fc-65" style="edgeStyle=orthogonalEdgeStyle;rounded=0;orthogonalLoop=1;jettySize=auto;html=1;entryX=1;entryY=0.5;entryDx=0;entryDy=0;exitX=0.75;exitY=1;exitDx=0;exitDy=0;strokeWidth=2;fontStyle=0;horizontal=1;verticalAlign=middle;" edge="1" parent="1" source="f1MAnPl3ED0NsZfVG7fc-62" target="f1MAnPl3ED0NsZfVG7fc-64">
          <mxGeometry relative="1" as="geometry">
            <mxPoint x="1040" y="2740" as="sourcePoint" />
            <mxPoint x="1020" y="2790" as="targetPoint" />
            <Array as="points">
              <mxPoint x="1030" y="2850" />
            </Array>
          </mxGeometry>
        </mxCell>
        <mxCell id="f1MAnPl3ED0NsZfVG7fc-70" value="Артикул" style="rounded=1;whiteSpace=wrap;html=1;fontStyle=0;fillColor=#d5e8d4;strokeColor=#82b366;strokeWidth=2;horizontal=1;verticalAlign=middle;" vertex="1" parent="1">
          <mxGeometry x="1070" y="2640" width="120" height="60" as="geometry" />
        </mxCell>
        <mxCell id="f1MAnPl3ED0NsZfVG7fc-72" value="Сколько вернули денег" style="rounded=1;whiteSpace=wrap;html=1;fontStyle=0;fillColor=#d5e8d4;strokeColor=#82b366;strokeWidth=2;horizontal=1;verticalAlign=middle;" vertex="1" parent="1">
          <mxGeometry x="1070" y="2710" width="120" height="60" as="geometry" />
        </mxCell>
        <mxCell id="f1MAnPl3ED0NsZfVG7fc-73" value="Прчина возврата" style="rounded=1;whiteSpace=wrap;html=1;fontStyle=0;fillColor=#d5e8d4;strokeColor=#82b366;strokeWidth=2;horizontal=1;verticalAlign=middle;" vertex="1" parent="1">
          <mxGeometry x="1250" y="2640" width="120" height="60" as="geometry" />
        </mxCell>
        <mxCell id="f1MAnPl3ED0NsZfVG7fc-74" value="Сколько прошло дней от покупки до возврата (кол-во дней и даты)" style="rounded=1;whiteSpace=wrap;html=1;fontStyle=0;fillColor=#d5e8d4;strokeColor=#82b366;strokeWidth=2;horizontal=1;verticalAlign=middle;" vertex="1" parent="1">
          <mxGeometry x="1250" y="2710" width="120" height="60" as="geometry" />
        </mxCell>
        <mxCell id="f1MAnPl3ED0NsZfVG7fc-84" style="edgeStyle=orthogonalEdgeStyle;rounded=0;orthogonalLoop=1;jettySize=auto;html=1;entryX=1;entryY=0.5;entryDx=0;entryDy=0;strokeWidth=2;fontStyle=0;horizontal=1;verticalAlign=middle;" edge="1" parent="1" source="f1MAnPl3ED0NsZfVG7fc-79" target="f1MAnPl3ED0NsZfVG7fc-80">
          <mxGeometry relative="1" as="geometry">
            <Array as="points">
              <mxPoint x="-230" y="2790" />
            </Array>
          </mxGeometry>
        </mxCell>
        <mxCell id="f1MAnPl3ED0NsZfVG7fc-85" style="edgeStyle=orthogonalEdgeStyle;rounded=0;orthogonalLoop=1;jettySize=auto;html=1;entryX=1;entryY=0.5;entryDx=0;entryDy=0;strokeWidth=2;fontStyle=0;horizontal=1;verticalAlign=middle;" edge="1" parent="1" source="f1MAnPl3ED0NsZfVG7fc-79" target="f1MAnPl3ED0NsZfVG7fc-81">
          <mxGeometry relative="1" as="geometry">
            <Array as="points">
              <mxPoint x="-230" y="2860" />
            </Array>
          </mxGeometry>
        </mxCell>
        <mxCell id="f1MAnPl3ED0NsZfVG7fc-86" style="edgeStyle=orthogonalEdgeStyle;rounded=0;orthogonalLoop=1;jettySize=auto;html=1;entryX=1;entryY=0.5;entryDx=0;entryDy=0;strokeWidth=2;fontStyle=0;horizontal=1;verticalAlign=middle;" edge="1" parent="1" source="f1MAnPl3ED0NsZfVG7fc-79" target="f1MAnPl3ED0NsZfVG7fc-82">
          <mxGeometry relative="1" as="geometry">
            <Array as="points">
              <mxPoint x="-230" y="2930" />
            </Array>
          </mxGeometry>
        </mxCell>
        <mxCell id="f1MAnPl3ED0NsZfVG7fc-87" style="edgeStyle=orthogonalEdgeStyle;rounded=0;orthogonalLoop=1;jettySize=auto;html=1;entryX=1;entryY=0.5;entryDx=0;entryDy=0;strokeWidth=2;fontStyle=0;horizontal=1;verticalAlign=middle;" edge="1" parent="1" source="f1MAnPl3ED0NsZfVG7fc-79" target="f1MAnPl3ED0NsZfVG7fc-83">
          <mxGeometry relative="1" as="geometry">
            <Array as="points">
              <mxPoint x="-230" y="3000" />
            </Array>
          </mxGeometry>
        </mxCell>
        <mxCell id="f1MAnPl3ED0NsZfVG7fc-79" value="Доставка" style="rounded=1;whiteSpace=wrap;html=1;fontStyle=1;fillColor=#fff2cc;strokeColor=#d6b656;strokeWidth=2;horizontal=1;verticalAlign=middle;" vertex="1" parent="1">
          <mxGeometry x="-320" y="2680" width="120" height="60" as="geometry" />
        </mxCell>
        <mxCell id="f1MAnPl3ED0NsZfVG7fc-80" value="Артикул" style="rounded=1;whiteSpace=wrap;html=1;fontStyle=0;fillColor=#d5e8d4;strokeColor=#82b366;strokeWidth=2;horizontal=1;verticalAlign=middle;" vertex="1" parent="1">
          <mxGeometry x="-370" y="2760" width="120" height="60" as="geometry" />
        </mxCell>
        <mxCell id="f1MAnPl3ED0NsZfVG7fc-81" value="Дата доставки" style="rounded=1;whiteSpace=wrap;html=1;fontStyle=0;fillColor=#d5e8d4;strokeColor=#82b366;strokeWidth=2;horizontal=1;verticalAlign=middle;" vertex="1" parent="1">
          <mxGeometry x="-370" y="2830" width="120" height="60" as="geometry" />
        </mxCell>
        <mxCell id="f1MAnPl3ED0NsZfVG7fc-82" value="Кому" style="rounded=1;whiteSpace=wrap;html=1;fontStyle=0;fillColor=#d5e8d4;strokeColor=#82b366;strokeWidth=2;horizontal=1;verticalAlign=middle;" vertex="1" parent="1">
          <mxGeometry x="-370" y="2900" width="120" height="60" as="geometry" />
        </mxCell>
        <mxCell id="f1MAnPl3ED0NsZfVG7fc-83" value="Измененная стоимость товара" style="rounded=1;whiteSpace=wrap;html=1;fontStyle=0;fillColor=#d5e8d4;strokeColor=#82b366;strokeWidth=2;horizontal=1;verticalAlign=middle;" vertex="1" parent="1">
          <mxGeometry x="-370" y="2970" width="120" height="60" as="geometry" />
        </mxCell>
        <mxCell id="f1MAnPl3ED0NsZfVG7fc-88" style="edgeStyle=orthogonalEdgeStyle;rounded=0;orthogonalLoop=1;jettySize=auto;html=1;entryX=1;entryY=0.5;entryDx=0;entryDy=0;strokeWidth=2;fontStyle=0;horizontal=1;verticalAlign=middle;" edge="1" parent="1" source="f1MAnPl3ED0NsZfVG7fc-92" target="f1MAnPl3ED0NsZfVG7fc-93">
          <mxGeometry relative="1" as="geometry">
            <Array as="points">
              <mxPoint x="-60" y="2910" />
            </Array>
          </mxGeometry>
        </mxCell>
        <mxCell id="f1MAnPl3ED0NsZfVG7fc-89" style="edgeStyle=orthogonalEdgeStyle;rounded=0;orthogonalLoop=1;jettySize=auto;html=1;entryX=1;entryY=0.5;entryDx=0;entryDy=0;strokeWidth=2;fontStyle=0;horizontal=1;verticalAlign=middle;" edge="1" parent="1" source="f1MAnPl3ED0NsZfVG7fc-92" target="f1MAnPl3ED0NsZfVG7fc-94">
          <mxGeometry relative="1" as="geometry">
            <Array as="points">
              <mxPoint x="-60" y="2980" />
            </Array>
          </mxGeometry>
        </mxCell>
        <mxCell id="f1MAnPl3ED0NsZfVG7fc-90" style="edgeStyle=orthogonalEdgeStyle;rounded=0;orthogonalLoop=1;jettySize=auto;html=1;entryX=1;entryY=0.5;entryDx=0;entryDy=0;strokeWidth=2;fontStyle=0;horizontal=1;verticalAlign=middle;" edge="1" parent="1" source="f1MAnPl3ED0NsZfVG7fc-92" target="f1MAnPl3ED0NsZfVG7fc-95">
          <mxGeometry relative="1" as="geometry">
            <Array as="points">
              <mxPoint x="-60" y="3050" />
            </Array>
          </mxGeometry>
        </mxCell>
        <mxCell id="f1MAnPl3ED0NsZfVG7fc-91" style="edgeStyle=orthogonalEdgeStyle;rounded=0;orthogonalLoop=1;jettySize=auto;html=1;entryX=1;entryY=0.5;entryDx=0;entryDy=0;strokeWidth=2;fontStyle=0;horizontal=1;verticalAlign=middle;" edge="1" parent="1" source="f1MAnPl3ED0NsZfVG7fc-92" target="f1MAnPl3ED0NsZfVG7fc-96">
          <mxGeometry relative="1" as="geometry">
            <Array as="points">
              <mxPoint x="-60" y="3120" />
            </Array>
          </mxGeometry>
        </mxCell>
        <mxCell id="f1MAnPl3ED0NsZfVG7fc-92" value="Отправка" style="rounded=1;whiteSpace=wrap;html=1;fontStyle=1;fillColor=#fff2cc;strokeColor=#d6b656;strokeWidth=2;horizontal=1;verticalAlign=middle;" vertex="1" parent="1">
          <mxGeometry x="-150" y="2800" width="120" height="60" as="geometry" />
        </mxCell>
        <mxCell id="f1MAnPl3ED0NsZfVG7fc-93" value="Артикул" style="rounded=1;whiteSpace=wrap;html=1;fontStyle=0;fillColor=#d5e8d4;strokeColor=#82b366;strokeWidth=2;horizontal=1;verticalAlign=middle;" vertex="1" parent="1">
          <mxGeometry x="-200" y="2880" width="120" height="60" as="geometry" />
        </mxCell>
        <mxCell id="f1MAnPl3ED0NsZfVG7fc-94" value="Дата отправки" style="rounded=1;whiteSpace=wrap;html=1;fontStyle=0;fillColor=#d5e8d4;strokeColor=#82b366;strokeWidth=2;horizontal=1;verticalAlign=middle;" vertex="1" parent="1">
          <mxGeometry x="-200" y="2950" width="120" height="60" as="geometry" />
        </mxCell>
        <mxCell id="f1MAnPl3ED0NsZfVG7fc-95" value="Кому" style="rounded=1;whiteSpace=wrap;html=1;fontStyle=0;fillColor=#d5e8d4;strokeColor=#82b366;strokeWidth=2;horizontal=1;verticalAlign=middle;" vertex="1" parent="1">
          <mxGeometry x="-200" y="3020" width="120" height="60" as="geometry" />
        </mxCell>
        <mxCell id="f1MAnPl3ED0NsZfVG7fc-96" value="Измененная стоимость товара" style="rounded=1;whiteSpace=wrap;html=1;fontStyle=0;fillColor=#d5e8d4;strokeColor=#82b366;strokeWidth=2;horizontal=1;verticalAlign=middle;" vertex="1" parent="1">
          <mxGeometry x="-200" y="3090" width="120" height="60" as="geometry" />
        </mxCell>
        <mxCell id="f1MAnPl3ED0NsZfVG7fc-97" style="edgeStyle=orthogonalEdgeStyle;rounded=0;orthogonalLoop=1;jettySize=auto;html=1;entryX=1;entryY=0.5;entryDx=0;entryDy=0;strokeWidth=2;fontStyle=0;horizontal=1;verticalAlign=middle;" edge="1" parent="1" source="f1MAnPl3ED0NsZfVG7fc-101" target="f1MAnPl3ED0NsZfVG7fc-102">
          <mxGeometry relative="1" as="geometry">
            <Array as="points">
              <mxPoint x="110" y="2910" />
            </Array>
          </mxGeometry>
        </mxCell>
        <mxCell id="f1MAnPl3ED0NsZfVG7fc-98" style="edgeStyle=orthogonalEdgeStyle;rounded=0;orthogonalLoop=1;jettySize=auto;html=1;entryX=1;entryY=0.5;entryDx=0;entryDy=0;strokeWidth=2;fontStyle=0;horizontal=1;verticalAlign=middle;" edge="1" parent="1" source="f1MAnPl3ED0NsZfVG7fc-101" target="f1MAnPl3ED0NsZfVG7fc-103">
          <mxGeometry relative="1" as="geometry">
            <Array as="points">
              <mxPoint x="110" y="2980" />
            </Array>
          </mxGeometry>
        </mxCell>
        <mxCell id="f1MAnPl3ED0NsZfVG7fc-99" style="edgeStyle=orthogonalEdgeStyle;rounded=0;orthogonalLoop=1;jettySize=auto;html=1;entryX=1;entryY=0.5;entryDx=0;entryDy=0;strokeWidth=2;fontStyle=0;horizontal=1;verticalAlign=middle;" edge="1" parent="1" source="f1MAnPl3ED0NsZfVG7fc-101" target="f1MAnPl3ED0NsZfVG7fc-104">
          <mxGeometry relative="1" as="geometry">
            <Array as="points">
              <mxPoint x="110" y="3050" />
            </Array>
          </mxGeometry>
        </mxCell>
        <mxCell id="f1MAnPl3ED0NsZfVG7fc-101" value="Доставленно" style="rounded=1;whiteSpace=wrap;html=1;fontStyle=1;fillColor=#fff2cc;strokeColor=#d6b656;strokeWidth=2;horizontal=1;verticalAlign=middle;" vertex="1" parent="1">
          <mxGeometry x="20" y="2800" width="120" height="60" as="geometry" />
        </mxCell>
        <mxCell id="f1MAnPl3ED0NsZfVG7fc-102" value="Дата подтверждения покупателем покупки" style="rounded=1;whiteSpace=wrap;html=1;fontStyle=0;fillColor=#d5e8d4;strokeColor=#82b366;strokeWidth=2;horizontal=1;verticalAlign=middle;" vertex="1" parent="1">
          <mxGeometry x="-30" y="2880" width="120" height="60" as="geometry" />
        </mxCell>
        <mxCell id="f1MAnPl3ED0NsZfVG7fc-103" value="Дата отправки (чья смена)" style="rounded=1;whiteSpace=wrap;html=1;fontStyle=0;fillColor=#d5e8d4;strokeColor=#82b366;strokeWidth=2;horizontal=1;verticalAlign=middle;" vertex="1" parent="1">
          <mxGeometry x="-30" y="2950" width="120" height="60" as="geometry" />
        </mxCell>
        <mxCell id="f1MAnPl3ED0NsZfVG7fc-104" value="Артикул" style="rounded=1;whiteSpace=wrap;html=1;fontStyle=0;fillColor=#d5e8d4;strokeColor=#82b366;strokeWidth=2;horizontal=1;verticalAlign=middle;" vertex="1" parent="1">
          <mxGeometry x="-30" y="3020" width="120" height="60" as="geometry" />
        </mxCell>
        <mxCell id="f1MAnPl3ED0NsZfVG7fc-107" style="edgeStyle=orthogonalEdgeStyle;rounded=0;orthogonalLoop=1;jettySize=auto;html=1;strokeWidth=2;fontStyle=0;horizontal=1;verticalAlign=middle;" edge="1" parent="1" source="f1MAnPl3ED0NsZfVG7fc-106" target="f1MAnPl3ED0NsZfVG7fc-92">
          <mxGeometry relative="1" as="geometry" />
        </mxCell>
        <mxCell id="f1MAnPl3ED0NsZfVG7fc-108" style="edgeStyle=orthogonalEdgeStyle;rounded=0;orthogonalLoop=1;jettySize=auto;html=1;strokeWidth=2;fontStyle=0;horizontal=1;verticalAlign=middle;" edge="1" parent="1" source="f1MAnPl3ED0NsZfVG7fc-106" target="f1MAnPl3ED0NsZfVG7fc-101">
          <mxGeometry relative="1" as="geometry" />
        </mxCell>
        <mxCell id="f1MAnPl3ED0NsZfVG7fc-106" value="Авито" style="rounded=1;whiteSpace=wrap;html=1;fontStyle=1;fillColor=#fff2cc;strokeColor=#d6b656;strokeWidth=2;horizontal=1;verticalAlign=middle;" vertex="1" parent="1">
          <mxGeometry x="-60" y="2680" width="120" height="60" as="geometry" />
        </mxCell>
      </root>
    </mxGraphModel>
  </diagram>
</mxfile>
